**ABCDEFGHIJKLMNOPQRSTUVWXYZabcdefghijklmnopqrstuvwxyz**************************
**PARASOLID !"#$%&'()*+,-./:;<=>?@[\]^_`{|}~0123456789**************************
**PART1;
MC=AMD64;
MC_MODEL=Intel64 Family 6 Model 60 Stepping 3, GenuineIntel;
MC_ID=unknown;
OS=Windows_NT;
OS_RELEASE=unknown;
FRU=Parasolid Version 27.0, build 207,  1-23-2015;
APPL=SOLIDWORKS 2015-2015109;
SITE=;
USER=unknown;
FORMAT=text;
GUISE=transmit;
KEY=Base_da_Pa;
FILE=Base_da_Pa.x_t;
DATE=Mon Sep 07 12:02:05 2015;
**PART2;
SCH=SCH_2700207_26105;
USFLD_SIZE=0;
**PART3;
**END_OF_HEADER*****************************************************************
T51 : TRANSMIT FILE created by modeller version 270020723 SCH_2700207_26105_1300
6196 0 12 30 CCCCCCCCCCCCCDI5 owner1040 0 CCCCCCCCCA13 boundary_mesh1006 0 A16 i
ndex_map_offset0 0 1 dA9 index_map82 0 A17 node_id_index_map82 0 A20 schema_embe
dding_map82 0 A5 child12 0 A14 lowest_node_id0 0 1 dZ1 982 0 2 0 0 0 0 1e3 1e-8
 0 3 0 1 0 1 1 4 5 6 7 8 9 10 0 0 0 0 0 0 0 70 11 CI9 list_type0 0 1 uI10 notran
smit0 0 1 lCCCDCCDI12 finger_index0 0 1 dI12 finger_block1012 0 CZ2 0 4 T1 0 0 2
 20 1 11 11 13 255 4 496 0 1 0 12 0 0 13 0 124 255 5 442 0 1 14 0 15 +16 17 133
 255 6 785 0 9 18 0 0 +19 -.016 .0657727038886387 0 .0184369178355004 .028215408
4598507 -.1317159066351782 0 .803620730023026 29 255 7 805 0 10 20 0 .0175191195
673871 .03513 -.1318411182051472 19 8 CCCCCCCA5 owner12 0 Z8 532 0 1 13 0 21 V0
 16 255 9 784 0 ?22 0 23 6 0 0 1 18 255 10 804 0 24 0 25 7 1e-6 1 17 255 24 0 26
 27 22 10 28 29 0 30 +18 25 802 0 31 10 32 20 1e-6 1 17 31 0 33 34 35 25 36 37 0
 38 -18 32 800 0 39 25 40 41 2417057057822845e-22 1 29 20 803 0 25 41 7 .0421454
994266328 .03513 -.1261457762990092 29 41 801 0 32 42 20 .016 .0657727038886387
 0 29 42 799 0 40 43 41 -574193470548323e-31 .0661993838392394 0 18 40 798 0 44
 32 45 42 254e-7 1 29 43 797 0 45 46 42 -.016 .0657727038886387 0 18 45 796 0 27
 40 47 43 2417057057822845e-22 1 29 46 795 0 47 48 43 -.01122508983558264 .06598
94466642794 1360917692758006e-22 18 47 794 0 49 45 50 46 469876135243407e-21 1 2
9 48 793 0 50 51 46 -.0112142731854026 .0659898532443939 4386676026878025e-21 18
 50 792 0 52 47 53 48 1e-8 1 29 51 791 0 53 54 48 -.00835032665429948 .066081948
4141765 .00087602647139908 18 53 790 0 55 50 56 51 254e-7 1 29 54 789 0 56 57 51
 .04240805966242795 .03334221750185285 -.1260577505577026 18 56 788 0 36 53 58 5
4 ?1 29 57 787 0 58 0 54 .0184369178355004 .02821540845985065 -.1317159066351782
 18 58 786 0 28 56 0 57 ?1 17 28 0 33 35 34 58 24 29 0 59 -15 255 33 310 0 28 60
 61 17 35 0 33 31 28 56 59 62 0 63 -17 34 0 33 28 31 10 64 65 0 0 +16 29 767 0 ?
24 62 66 67 0 0 1 17 59 0 68 69 63 58 35 62 0 22 +15 68 369 0 69 70 0 17 69 0 68
 49 59 45 22 9 0 0 -17 63 0 68 59 71 56 72 23 0 0 +16 62 769 0 ?59 37 29 73 0 0
 1 17 22 0 26 24 27 58 69 9 0 0 +15 26 376 0 27 12 0 17 27 0 26 22 24 45 30 74 0
 75 +17 30 0 76 64 75 10 27 74 0 34 -16 74 775 0 ?27 77 78 79 0 0 1 17 75 0 76 3
0 80 45 49 78 81 69 -15 76 323 0 80 82 0 17 80 0 76 75 52 47 83 84 85 86 -17 49
 0 68 87 69 47 75 78 88 80 +16 78 774 0 2417057057822845e-22 49 74 89 0 0 0 1 13
3 81 288 0 75 90 91 0 +91 -.0112250835351051 .0659894489732156 1466825183622642e
-22 -.016 .0657727038886386 1959434878635765e-33 1 0 38 255 90 280 0 1 92 81 93
 +94 95 96 97 98 137 255 91 289 0 1 81 99 100 -94 101 0 ?38 99 298 0 1 91 102 10
3 +94 104 105 106 107 141 255 100 81 100 100 91 53 255 94 78 0 82 108 109 110 +0
 -.2340046161607605 0 .300204 0 -1 0 1 0 0 134 255 101 0 0 0 0 0 0 +111 112 136
 255 111 2 5 2 3 5 FFF1 113 114 115 135 255 112 2 0 45 255 10 113 3.141592653589
795 -1.517473970733945 3.141592653589795 -1.52145459909599 3.14159805008067 -1.5
2543522380006 3.141598825642525 -1.52600730309185 3.14157958620211 -1.5333960894
1396 127 255 3 114 3 2 3 128 255 3 115 0 .5 1 14 255 82 324 116 ?0 60 76 4 94 +0
 0 60 117 21 50 255 108 190 0 118 119 94 0 +0 .04 .05 0 1 0 0 0 1 51 255 109 79
 0 60 94 104 120 +0 0 0 0 -1 0 .133 0 0 -1 141 110 121 122 123 94 38 121 265 0 1
 124 125 126 +94 127 128 129 130 141 122 131 132 110 94 141 123 92 110 133 94 13
7 92 274 0 1 125 90 134 -94 135 0 ?141 133 90 123 136 94 141 136 91 133 137 94 1
41 137 99 136 132 94 141 132 138 137 122 94 137 138 321 0 1 139 85 140 -94 141 0
 ?133 139 320 0 142 143 138 0 +138 -171039443052364e-31 .0661993838392393 673499
241505083e-32 -.0083503266542994 .0660819484141764 .000876026471398818 .99804687
5 0 133 85 330 0 80 138 131 0 +131 -.0112142731854025 .0659898532443939 43866760
25918895e-21 -.0112249830072295 .065989452734755 635955778528963e-32 1 0 141 140
 139 140 140 138 134 141 0 0 0 0 0 0 +144 145 136 144 2 5 2 3 5 FFF1 146 147 148
 135 145 2 0 45 10 146 3.037065761359325 -1.54282452249859 2.943506596758105 -1.
551285731338395 2.8908501520452 -1.556624892395505 2.825640742002125 -1.56323687
587744 2.76646988055292 -1.570796326794895 127 3 147 3 2 3 128 3 148 0 .5 .99804
6875 137 131 331 0 1 85 149 150 -94 151 0 ?133 149 479 0 83 131 152 0 +153 -.011
22498247585836 .0659894385335588 1387778780781446e-32 -.0112142731854025 .065989
8532443939 4386676025924795e-21 1 0 141 150 85 150 150 131 134 151 0 0 0 0 0 0 +
154 155 136 154 1 2 2 2 5 FFF1 156 157 158 135 155 2 0 45 4 156 3.14159265358979
5 -1.5333964245167 3.1412014846099 -1.53343212174482 127 2 157 2 2 128 2 158 0 1
 17 83 0 159 55 86 50 80 84 149 0 +133 152 478 0 160 149 88 0 +161 -.00835032665
429942 .0660819484141764 .000876026471398818 -871264865809351e-30 .0661993838392
394 -3914403523541665e-30 1 0 137 153 462 0 1 161 162 163 -104 164 0 ?137 161 46
3 0 1 165 153 166 -104 167 0 ?137 162 461 0 1 153 168 169 -170 171 0 ?141 163 14
9 163 163 153 124 104 449 0 117 109 170 172 -173 174 134 164 0 0 0 0 0 0 +175 17
6 136 175 1 2 2 2 5 FFF1 177 178 179 135 176 2 0 45 4 177 .682944068927276 .4177
512129721305 .683133931822661 .4177459852967835 127 2 178 2 2 128 2 179 0 1 14 1
17 356 180 ?118 70 159 4 104 -0 0 82 70 21 124 170 448 0 70 104 127 181 +182 183
 141 172 99 184 185 104 126 255 173 FF1 3 2 10 5 6 2 5 FFF9 3 186 187 188 189 19
0 125 255 174 0 1 0 1 0 1 0 1 2 BBBBBBBB????0 0 0 0 45 60 186 .0678976136744488
 .0194063276506013 -.1582260065132005 .0590798171359782 .0394352770042831 -.1246
807844260236 .0508938189088251 .0532121526373295 -.0910415868093948 .03575179591
841495 .0679741577712718 -.02452985062751875 .02877686985687015 .068948788984094
9 .00821398859566603 .01589929665012765 .0599821173276358 .0722704612494452 .010
00760488995326 .0501252939415186 .1036812469576916 -.00059150838853601 .02009113
560977665 .1666218874557 -.00529302507571161 -.000151037454797387 .1981835572767
525 -.00940469401381596 -.02606794200360145 .230026884797208 .01010238632555116
 .00459367234939868 -.1645739934867995 .001197808556203316 .02572461765615265 -.
1328101148830042 -.00715843281793784 .04143696893022055 -.1011489119851352 -.022
7390463470206 .0623087475491639 -.0370837903353136 -.0299447794153491 .067479228
9412288 -.00455008176724004 -.0430672062086068 .0653925672643543 .06192677891231
49 -.0489948553185593 .0580509447122496 .0957717787461442 -.0596731055205769 .03
034465262443815 .163320947083104 -.0644295973704813 .0100448961793969 .196993580
9854745 -.068595305986184 -.01625205799640135 .2303731152027925 127 2 187 2 2 12
7 5 188 4 2 2 2 4 128 2 189 0 1 128 5 190 0 .25 .5 .75 1 141 184 153 185 172 104
 141 185 161 172 184 104 14 70 363 191 ?117 192 68 4 170 -0 0 117 192 21 124 127
 447 0 192 170 95 193 +194 195 141 181 73 196 197 170 126 182 FF3 3 13 5 6 6 9 3
 FFF2 3 198 199 200 201 202 125 183 .972250058965273 1 0 1 .972250058965273 1 0
 1 2 BBBBBBBB????0 0 0 0 45 195 198 .016 .0657727038886387 0 .0171282211302168 .
0654275948235228 -.00590323195971685 .02844389410931975 .0605334050041638 -.0644
141957503567 .04011988657275905 .04157836949110915 -.1178899708655186 .050935677
968519 .01315192944655176 -.1618611398725325 .014830160078418 .0658351416966164
 0 .0159588714931639 .0654827361641745 -.00590124750002447 .02727968694448165 .0
605198961159192 -.0643939594046518 .03896139068413645 .04150966150606375 -.11785
05382526646 .0497808673358054 .01304047701154784 -.161816523284403 .012362571285
0215 .0659531226058621 0 .0135032836114777 .0655871192796147 -.00589755986700269
 .0249445878118623 .0604968340328409 -.0643565750245113 .03674776734786175 .0413
845257049383 -.117778492665034 .0476738449491639 .01283712525070796 -.1617351175
999195 .0083199530715204 .0660937617802316 0 .00949807654571112 .065709692755775
9 -.00589240038187161 .02131421279962985 .0604512557516435 -.0643045718095542 .0
334932467549997 .0412041908615258 -.1176810118111402 .0447540578998719 .01255533
240336314 -.1616223104153355 .00409765932619042 .0661813563628961 0 .00532196994
101554 .0657816079462918 -.00588741088824878 .0176006992996141 .0603785829238135
 -.0642544195110296 .0302428839975092 .0410155935105258 -.117589915455791 .04191
75587554162 .01228157779149814 -.1615127210935255 .001333965381571482 .066199383
8392394 0 .00258630495190087 .0657906621032295 -.00588408581118088 .015145805741
79995 .060305837983065 -.0642209852660657 .02806881946229185 .0408769575526271 -
.117531112896935 .0399946398307098 .01209599412054596 -.161438428322711 -5741934
70548323e-31 .0661993838392394 0 .001263653790272756 .0657864291224115 -.0058823
9126622351 .01393653790272754 .0602631905429863 -.064203912662235 .0269728841124
548 .04080303785209305 -.1175015213960114 .039 .012 -.1614 -.001333965381571344
 .0661993838392394 0 -589973713551047e-19 .0657821961415936 -.00588069672126614
 .01272727006365534 .0602205431029077 -.0641868400584043 .0258769487626179 .0407
2911815155905 -.117471929895088 .0380053601692904 .01190400587945404 -.161361571
677289 -.004098260411371365 .0661813551799971 0 -.00279522675692998 .06575674258
85173 -.00587745729616429 .01027216174052274 .060128350919891 -.0641542474259847
 .02370269461693005 .0405824543296045 -.1174165198503772 .0360827309006202 .0117
184501636225 -.161287290097456 -.00832197533964292 .0660937104953088 0 -.0069726
5441243284 .065660802818501 -.0058728488418603 .00655825157678025 .0599597767923
596 -.0641078382291991 .0204514129455201 .04035367599390235 -.117340531178288 .0
332468786334125 .01144475798281104 -.161177725768017 -.0123646720638067 .0659530
317659204 0 -.01097787485185816 .0655139857229911 -.00586831872350313 .002928387
29454365 .0597609557660502 -.0640620164109428 .0171955341322516 .040109392731642
75 -.117268021662189 .0303274189945127 .01116299673431402 -.161064931233069 -.01
48310221837476 .0658350956835115 0 -.01343223129212414 .0653926762380378 -.00586
521331557824 .000594329362678816 .0596115490333493 -.0640303493336985 .014980544
44620476 .0399323788332073 -.1172190941804084 .0282199838294084 .010959605135631
04 -.1609835096007185 -.016 .0657727038886387 0 -.01460074872018894 .06532849035
56408 -.00586355941155457 -.000569411666080836 .0595320886041625 -.0640133580242
911 .01382088673170612 .03983693478337605 -.1171928016072352 .02706432203148615
 .01084807055344872 -.160938860127468 127 10 199 4 1 1 1 3 1 1 1 4 0 127 3 200 4
 1 4 128 10 201 .972250058965273 .975718801594614 .979187544223955 .982656286853
296 .986125029482638 .989593772111978 .993062514741319 .996531257370659 1 ?128 3
 202 0 .1 1 38 73 308 0 62 102 143 0 +109 170 203 204 205 141 196 162 197 181 17
0 141 197 168 181 196 170 137 168 460 0 1 162 206 207 -170 208 0 ?38 206 455 0 1
 168 209 210 +14 5 211 212 213 141 207 88 207 207 168 134 208 0 0 0 0 0 0 +214 2
15 136 214 1 2 2 2 5 FFF1 216 217 218 135 215 2 0 45 4 216 .972250058965273 0 1
 0 127 2 217 2 2 128 2 218 0 1 133 88 477 0 49 152 165 0 +168 -.016 .06577270388
86387 0 -.01122502799353424 .0659894388377676 0 1 .840452026972888 133 165 476 0
 71 88 161 0 +162 -574193470548323e-31 .0661993838392394 0 .016 .065772703888638
7 0 .5 0 17 71 0 68 63 87 32 44 77 165 0 +17 87 0 68 71 49 40 86 219 0 160 -17 4
4 0 76 142 39 40 71 77 125 87 -16 77 777 0 2417057057822845e-22 71 220 74 0 0 0
 1 16 220 778 0 ?38 219 77 221 0 0 1 17 38 0 222 36 72 25 39 220 0 64 +16 219 78
0 0 ?86 23 220 223 0 0 1 133 221 779 0 220 79 223 0 +121 .016 .0657727038886387
 0 .0421454994266328 .03513 -.1261457762990094 0 .1337165065028264 133 79 776 0
 74 224 221 0 +90 .0175191195673871 .03513 -.1318411182051472 -.016 .06577270388
86388 0 0 .1408220598949148 133 223 781 0 219 221 18 0 +206 -578530279238265e-31
 .0661993838392395 -832667268468868e-32 -.0112250734334604 .0659894371378275 -34
555691641458e-29 0 .01261063305428534 133 18 783 0 23 223 6 0 +209 .016 .0657727
038886387 0 .04240805966242795 .03334221750185285 -.1260577505577026 0 .76168201
3628574 16 23 782 0 ?63 9 219 18 0 0 1 134 209 454 0 1 206 19 225 +226 227 134 1
9 453 0 1 209 67 228 +229 230 141 225 18 225 225 209 136 226 3 5 3 3 6 FFF1 231
 232 233 135 227 2 0 45 15 231 .016 .0657727038886387 0 .0171282211302168 .06542
75948235228 -.00590323195971685 .02844389410931975 .0605334050041638 -.064414195
7503567 .04011988657275905 .04157836949110915 -.1178899708655186 .05093567796851
9 .01315192944655176 -.1618611398725325 127 3 232 4 1 4 128 3 233 0 .1 1 133 67
 768 0 29 19 234 0 +143 .0184369178355004 .02821540845985065 -.1317159066351782
 .0175191195673871 .03513 -.1318411182051472 0 .00697636063899443 141 228 6 228
 228 19 136 229 3 5 3 3 6 FFF1 235 236 237 135 230 2 0 45 15 235 -.016 .06577270
38886387 0 -.01460074872018894 .0653284903556408 -.00586355941155457 -.000569411
666080836 .0595320886041625 -.0640133580242911 .01382088673170612 .0398369347833
7605 -.1171928016072352 .02706432203148615 .01084807055344872 -.160938860127468
 127 3 236 4 1 4 128 3 237 0 .1 1 133 234 771 0 37 67 224 0 +102 .04214549942663
28 .03513 -.1261457762990092 .04240805966242795 .03334221750185285 -.12605775055
77024 0 .00180910272489836 38 143 312 0 1 73 139 238 +109 95 239 240 241 141 238
 67 238 238 143 124 95 445 0 12 127 14 242 +243 244 40 255 2 239 0 1 2 147594912
1902992e-20 .00421577922776223 ??.0184369178355004 .02821540845985065 -.13171590
66351782 .0175191195673871 .03513 -.1318411182051472 41 255 1 240 L.018436917835
5004 .02821540845985065 -.1317159066351782 41 1 241 L.0175191195673871 .03513 -.
1318411182051472 14 12 370 245 ?192 0 26 4 95 -0 0 192 0 21 124 14 443 0 1 95 5
 246 -247 248 141 242 143 249 249 95 126 243 FF3 3 11 5 4 6 9 3 FFF2 3 250 251 2
52 253 254 125 244 0 .483177204673574 0 1 0 .483177204673574 0 1 2 BBBBBBBB????0
 0 0 0 45 165 250 -.016 .0657727038886387 0 -.01460074872018894 .065328490355640
8 -.00586355941155457 -.000569411666080836 .0595320886041625 -.0640133580242911
 .01382088673170612 .03983693478337605 -.1171928016072352 .02706432203148615 .01
084807055344872 -.160938860127468 -.0154715625 .0860671745599454 0 -.01415328214
56006 .0856361881124873 -.00613786771599452 -.000928650501781473 .08001848286921
17 -.067051672032697 .01264287460802988 .0604896792845231 -.1231002215801936 .02
51550019917879 .03162083833321985 -.169254605084575 -.0144146875 .12665611590255
9 0 -.01325207380355722 .1263016596616428 -.00669893645261532 -.0015831569846858
55 .121449906952757 -.0732382486561769 .01036125079211842 .1020838419954256 -.13
53562576328816 .02149556802708475 .0727323323273333 -.1857123396765735 -.0128293
75 .187539527916479 0 -.01188147244600242 .1873916426135665 -.00756032151828593
 -.002369649029978085 .184394381354994 -.0826728425452202 .00720562373914908 .16
46746630284595 -.15454732948362 .01650530836921855 .1328640280270554 -.209784232
771349 -.0112440625 .2484229399303995 0 -.01049308065669022 .2485256011055895 -.
00842817848217835 -.002968097747477075 .2476748019418775 -.0921339564815292 .004
34021748258508 .2270223170612215 -.174118400116737 .0120063625869821 .1915463295
43303 -.2332759050452955 -.00965875 .3093063519443195 0 -.00908751966273659 .309
651296267267 -.00928742035044107 -.003381578446673295 .310780950015267 -.1014738
353138732 .00179636504587869 .2885908456973755 -.193605134984894 .00800246883530
91 .248732224513499 -.25616853653079 -.0080734375 .3701897639582395 0 -.00766561
535962626 .3707193393752325 -.01012410109880534 -.00361541778911361 .37323395849
4871 -.1105572745564318 -.000398898583261802 .348904143629206 -.212567159901989
 .004491225218070455 .3044602049873815 -.2784775363476915 -.006488125 .431073175
9721595 0 -.00622803897307378 .431677494030292 -.0109231347227092 -.003673241068
87285 .434523635866294 -.1192365299401596 -.002215290351954225 .407426304356617
 -.230540161095764 .001474869932242622 .358683332739862 -.300184114207064 -.0049
0281249999999 .49195658798608 0 -.00477563696659514 .492477676697307 -.011671097
69024198 -.0035606011958414 .494185472119748 -.1273821443951752 -.00362620720114
609 .463708631524673 -.2470947367196375 -.00104961595924034 .4114792554675075 -.
321319353999509 -.003845937499999995 .532545529328693 0 -.00379785134184143 .532
868439399166 -.01212461301815722 -.003373387774114415 .532506586202568 -.1323470
5292535 -.00427460460885485 .499326066419254 -.25685449450127 -.0024007607638757
2 .445617170579574 -.3349854286626915 -.0033175 .55284 0 -.00330679338405217 .55
3022242596331 -.0123386959865185 -.003253481511852265 .551249561636564 -.1347008
42181151 -.00452285284457766 .51662825829674 -.2613613785947255 -.00299607034825
699 .462497493875656 -.341742952013067 127 10 251 4 1 1 1 1 1 1 1 4 0 127 3 252
 4 1 4 128 10 253 0 .0603971505841967 .1207943011683934 .1811914517525905 .24158
8602336787 .301985752920984 .3623829035051805 .4227800540893775 .483177204673574
 ?128 3 254 0 .1 1 141 249 90 242 242 95 141 246 206 246 246 14 126 247 FF1 3 2
 10 5 6 2 5 FFF9 3 255 256 257 258 259 125 248 0 1 0 1 0 1 0 1 2 BBBBBBBB????0 0
 0 0 45 60 255 .0678976136744488 .0194063276506013 -.1582260065132005 .059079817
1359782 .0394352770042831 -.1246807844260236 .0508938189088251 .0532121526373295
 -.0910415868093948 .03575179591841495 .0679741577712718 -.02452985062751875 .02
877686985687015 .0689487889840949 .00821398859566603 .01589929665012765 .0599821
173276358 .0722704612494452 .01000760488995326 .0501252939415186 .10368124695769
16 -.00059150838853601 .02009113560977665 .1666218874557 -.00529302507571161 -.0
00151037454797387 .1981835572767525 -.00940469401381596 -.02606794200360145 .230
026884797208 .01010238632555116 .00459367234939868 -.1645739934867995 .001197808
556203316 .02572461765615265 -.1328101148830042 -.00715843281793784 .04143696893
022055 -.1011489119851352 -.0227390463470206 .0623087475491639 -.037083790335313
6 -.0299447794153491 .0674792289412288 -.00455008176724004 -.0430672062086068 .0
653925672643543 .0619267789123149 -.0489948553185593 .0580509447122496 .09577177
87461442 -.0596731055205769 .03034465262443815 .163320947083104 -.06442959737048
13 .0100448961793969 .1969935809854745 -.068595305986184 -.01625205799640135 .23
03731152027925 127 2 256 2 2 127 5 257 4 2 2 2 4 128 2 258 0 1 128 5 259 0 .25 .
5 .75 1 81 255 1 245 977 260 12 261 0 191 262 263 14 192 377 262 ?70 12 222 4 12
7 -0 0 70 12 21 13 21 806 0 0 0 0 0 0 8 12 81 1 262 978 260 192 264 0 245 265 26
6 15 222 383 0 72 192 0 17 72 0 222 38 36 32 63 23 0 71 -17 36 0 222 72 38 56 31
 37 0 35 +16 37 770 0 ?36 89 62 234 0 0 1 16 89 772 0 ?55 78 37 224 0 0 1 17 55
 0 159 160 83 53 52 89 0 142 +133 224 773 0 89 234 79 0 +99 -.01121427318540244
 .0659898532443939 438667602647904e-20 -.00835032665429951 .0660819484141765 .00
0876026471399212 778433112087747e-19 .003069429226163775 15 159 362 0 160 117 0
 17 160 0 159 86 55 40 142 66 152 0 +17 52 0 76 80 142 50 55 89 0 83 -17 142 0 7
6 52 44 53 160 66 139 0 -16 66 766 0 254e-7 160 29 84 0 0 0 1 16 84 765 0 1e-8 8
3 66 65 0 0 0 1 16 65 256 0 ?34 84 267 124 0 0 1 16 267 160 0 ?268 65 269 270 0
 0 1 133 124 259 0 65 271 121 0 +271 .0421454994266328 .03513 -.1261457762990092
 .0175191195673871 .03513 -.1318411182051472 .3224417902603245 6.41529193320322
 31 255 271 254 0 1 270 124 272 +0 .03513 0 0 -1 0 0 0 -1 .133 31 270 198 0 267
 273 271 0 +0 .02513 0 0 1 0 0 0 1 .133 141 272 124 272 272 271 31 273 199 0 269
 274 270 0 +0 .02513 0 0 1 0 0 0 1 .05 16 269 161 0 ?275 267 276 273 0 0 1 31 27
4 200 0 276 0 273 0 +0 .04 0 0 1 0 0 0 1 .05 16 276 159 0 ?277 269 0 274 0 0 1 1
7 277 0 278 277 277 0 279 276 0 0 +15 278 187 0 277 280 0 17 279 0 281 279 279 0
 277 276 0 0 -15 281 172 0 279 118 0 14 118 170 265 ?280 117 281 4 108 -0 0 0 28
0 21 81 1 265 979 260 118 282 0 262 283 284 14 280 184 283 ?285 118 286 4 287 -0
 0 118 285 21 81 1 283 980 260 280 288 0 265 289 290 14 285 180 289 ?60 280 291
 4 119 -0 0 280 60 21 15 286 186 0 292 280 278 51 287 194 0 280 0 119 0 +0 .04 0
 0 1 0 .05 0 0 1 50 119 193 0 285 287 108 0 +0 .02513 .05 0 1 0 0 0 1 17 292 0 2
86 292 292 0 275 269 0 0 -17 275 0 293 275 275 0 292 269 0 0 +15 293 183 0 275 2
85 0 81 1 289 981 260 285 294 0 283 295 296 14 60 57 295 ?82 285 33 4 109 +0 0 2
85 82 21 15 291 182 0 297 285 293 17 297 0 291 297 297 0 268 267 0 0 -17 268 0 6
1 268 268 0 297 267 0 0 +15 61 150 0 268 60 0 81 1 295 982 260 60 298 0 289 0 29
9 80 255 1 260 300 301 9000 1 1 1 1 1 1 1 1 0 FFFFTFTFFFFFFF1 81 1 298 884 302 6
0 0 295 294 303 304 82 255 1 299 957026136 80 1 302 0 305 8001 0 0 0 0 3 5 0 0 0
 FFFFTFTFFFFFFF2 81 1 294 883 302 285 0 289 288 298 306 81 1 303 885 302 82 0 11
6 298 0 307 83 255 3 304 1 1 1 81 1 116 974 260 82 303 0 0 180 308 83 3 307 1 1
 1 81 1 180 975 260 117 309 0 116 191 310 82 1 308 951062360 81 1 309 361 302 11
7 0 180 0 311 312 81 1 191 976 260 70 311 0 180 245 313 82 1 310 952307544 81 1
 311 368 302 70 0 191 309 261 314 82 1 313 952438616 81 1 261 375 302 12 0 245 3
11 264 315 83 3 314 1 1 1 81 1 264 382 302 192 0 262 261 282 316 83 3 315 1 1 1
 81 1 282 881 302 118 0 265 264 288 317 83 3 316 1 1 1 81 1 288 882 302 280 0 28
3 282 294 318 83 3 317 1 1 1 83 3 318 1 1 1 83 3 312 1 1 1 83 3 306 1 1 1 79 255
 15 305 SDL/TYSA_COLOUR79 14 301 SWEntUnchanged82 1 296 718016342 82 1 290 71742
6518 82 1 284 720113494 17 86 0 159 83 160 47 87 219 0 0 +82 1 266 954339160 82
 1 263 954142552 38 102 304 0 1 99 73 319 +109 127 320 321 322 141 319 234 319 3
19 102 40 2 320 0 1 2 85038720504e-17 .000939148035278952 ??.0421454994266328 .0
3513 -.1261457762990092 .04240805966242795 .03334221750185285 -.1260577505577024
 41 1 321 L.0421454994266328 .03513 -.1261457762990092 41 1 322 L.04240805966242
795 .03334221750185285 -.1260577505577024 17 39 0 76 44 64 32 38 220 0 72 -17 64
 0 76 39 30 25 34 65 0 0 -133 125 273 0 44 121 92 0 +92 .016 .0657727038886386 0
 183821933845616e-31 .0661993838392393 0 1 762939453125e-17 141 210 223 210 210
 206 40 6 211 0 1 6 .000457488883107006 .3901521759080075 ??-578530279238265e-31
 .0661993838392395 -832667268468868e-32 -.002281284776532705 .0660643629297499 -
.00167064669007625 -.004454361232932205 .0659700498218794 -.002471082841308535 -
.00679002352007481 .0659231749309694 -.00243050536899593 -.00917897126828999 .06
5936819287205 -.001468110070592686 -.0112250734334604 .0659894371378275 -3455569
1641458e-29 41 1 212 L-578530279238265e-31 .0661993838392395 -832667268468868e-3
2 41 1 213 L-.0112250734334604 .0659894371378275 -34555691641458e-29 40 4 203 0
 1 4 .0002765943108864015 .0644473456623876 ??.04240805966242795 .03334221750185
285 -.1260577505577024 .03451398427295165 .03148288812530875 -.1284437031917346
 .0265565560558376 .02977700490805525 -.130321714731096 .0184369178355004 .02821
54084598507 -.1317159066351782 41 1 204 L.04240805966242795 .03334221750185285 -
.1260577505577024 41 1 205 L.0184369178355004 .0282154084598507 -.13171590663517
82 141 193 102 323 323 127 126 194 FF3 3 11 5 4 6 9 3 FFF2 3 324 325 326 327 328
 125 195 .489439153407605 .972250058965273 0 1 .489439153407605 .972250058965273
 0 1 2 BBBBBBBB????0 0 0 0 45 165 324 .0033175 .55284 0 .003306785671122775 .553
022395717302 -.01233875733106196 .003146771607717705 .551251114393986 -.13470146
42383094 .00166581460978501 .516630973232429 -.26136246341156 .00299607034825925
5 .462782506124343 -.3418570479869335 .003845937499999995 .532545529328693 0 .00
3859723339162115 .532811542472166 -.01210183640437298 .003947621990852585 .53187
8899843211 -.13209578108698 .00272263638315521 .498124288643578 -.25637338486772
25 .004260429890513325 .4459636354227765 -.335124125311266 .00490281249999999 .4
9195658798608 0 .00497036593016693 .492344602047369 -.01161782574357436 .0056019
6263812694 .492684153246249 -.126781141341493 .00498282844767223 .46077069040639
8 -.2459186027403825 .00696434557695606 .4119540196127785 -.3215094113663805 .00
6488125 .43107317597216 0 .00665256994135815 .4315184742735765 -.010859475591196
6 .00826268310450153 .4326222767050235 -.1184753746822048 .0088190487223283 .403
505053261438 -.228970425424441 .01158026271220798 .3593673981018705 -.3004579589
41899 .00807343749999999 .3701897639582395 0 .00835139374578251 .37059722898486
 -.01007521610801466 .0111067573138673 .3715986038600645 -.1099025925315182 .013
07475528092976 .3452225377650555 -.211093418932795 .0167439165121377 .3053704528
604805 -.278841926362576 .00965875 .309306351944319 0 .0100678320400668 .3096034
906397265 -.00926827951070905 .014145094822606 .309833368258579 -.10109446768844
4 .0177364178191711 .285974026928492 -.192557713327072 .0224614508781633 .249885
8030590015 -.2566303365698645 .0112440625 .248422939930399 0 .0118025387099487 .
2485640305001635 -.00844355806244586 .0173848562673204 .2475924182860735 -.09210
0933463335 .0227833490040778 .225897486636111 -.173668299645099 .028728785385032
75 .192960471972284 -.233842013899788 .012829375 .187539527916479 0 .01355643550
203216 .187502777094503 -.00760480602454595 .02083614875414065 .1851103322578475
 -.0829594051462463 .02820048658086405 .165071185365515 -.154706270885951 .03554
987543347805 .1345562008655228 -.2104616426330115 .0144146875 .126656115902559 0
 .01533012600460805 .126446500740597 -.00675691528221967 .02450557964775375 .122
652948173922 -.0737198118900178 .0339660869701708 .1036330691742316 -.1359766101
503848 .04291913167484065 .0747199846895193 -.186508035766886 .0154715625 .08606
71745599454 0 .01652655355242315 .0857605320717769 -.00618764289369244 .02710575
657381545 .0811759426086847 -.0675150050391758 .03803538267023985 .0622964762062
194 -.1238236094454182 .0482047574725268 .0338173934479125 -.170133929029832 .01
6 .0657727038886387 0 .0171282211302168 .0654275948235228 -.00590323195971685 .0
2844389410931975 .0605334050041638 -.0644141957503567 .04011988657275905 .041578
36949110915 -.1178899708655186 .050935677968519 .01315192944655176 -.16186113987
25325 127 11 325 4 1 1 1 1 1 1 1 4 0 0 127 3 326 4 1 4 128 11 327 .4894391534076
05 .549790516602313 .610141879797022 .67049324299173 .730844606186439 .791195969
381147 .851547332575856 .911898695770564 .972250058965273 ??128 3 328 0 .1 1 141
 323 121 193 193 127 141 169 165 169 169 162 134 171 0 0 0 0 0 0 +329 330 136 32
9 1 2 2 2 5 FFF1 331 332 333 135 330 2 0 45 4 331 .972250058965273 0 1 0 127 2 3
32 2 2 128 2 333 0 1 141 166 152 166 166 161 134 167 0 0 0 0 0 0 +334 335 136 33
4 2 3 2 2 5 FFF1 336 337 338 135 335 2 0 45 6 336 .500000000000028 .411993707517
7905 .563827485967411 .4182990621089575 .633211864610863 .418413834286333 127 2
 337 3 3 128 2 338 0 1 141 134 125 134 134 92 134 135 0 0 0 0 0 0 +339 340 136 3
39 2 23 2 12 5 FFF1 341 342 343 135 340 2 0 45 46 341 0 -1.570796326794895 .0003
10632482554598 -1.56921293124178 0 -1.561429504071825 -.0001159905006511398 -1.5
58523164056125 -737494153604246e-19 -1.556571773154195 -474554660906601e-19 -1.5
55357084349975 0 -1.554143038122845 .0001121829567928498 -1.551273077996805 0 -1
.54602360116409 -474233552035362e-19 -1.54380447794264 -4447411142916025e-20 -1.
542455224071455 -427017517846932e-19 -1.541644384651465 -82383031427824e-19 -1.5
38886844562405 -450363239783719e-20 -1.5385880205995 0 -1.538289207236565 376162
5840620265e-20 -1.53579339059736 1038892064158732e-20 -1.531749896394465 5675804
54742081e-20 -1.531049958054215 0 -1.530350026858415 -1406859265976562e-20 -1.52
8615110371895 -68031669826496e-19 -1.52391238712064 0 -1.519508872037935 0 -1.51
7473970733945 127 12 342 3 2 2 2 2 2 2 2 2 2 2 3 128 12 343 762939453125e-17 .17
5638766231714 .266738296902305 .3122880622376005 .464571931268483 .5315004398599
23 .598428948451363 .609638166442995 .732285965634242 .758540209086218 .87927010
4543109 1 141 126 221 126 126 121 40 4 128 0 1 4 .00795703541684598 .23199284342
88405 ??.016 .0657727038886387 0 .02211195768536705 .063703765390274 -.031673687
7799888 .02838017017853215 .0581614920381487 -.0628965243597825 .042145499426632
8 .03513 -.1261457762990094 41 1 129 L.016 .0657727038886387 0 41 1 130 L.042145
4994266328 .03513 -.1261457762990094 141 120 102 344 345 109 141 344 143 345 120
 109 141 345 73 120 344 109 141 103 224 103 103 99 40 4 105 0 1 4 .0009728070898
32456 .39358173809543 ??-.01128735250036764 .0659871115835219 -239694118063759e-
19 -.00663747373503357 .0661237957392965 .001149751610726294 -.00180914186100687
5 .0661931020425941 .000706121254432085 750559133937811e-19 .066199372252251 -36
3803554516576e-19 41 1 106 L-.01128735250036764 .0659871115835219 -2396941180637
59e-19 41 1 107 L750559133937811e-19 .066199372252251 -363803554516576e-19 141 9
3 79 93 93 90 40 4 96 0 1 4 .00488493311372346 .18064670761393 ??.01751911956738
71 .03513 -.1318411182051472 .0093561082399536 .0483188230777296 -.1016286402110
776 -.00320141236372408 .0615648657598588 -.0524487743617902 -.016 .065772703888
6388 0 41 1 97 L.0175191195673871 .03513 -.1318411182051472 41 1 98 L-.016 .0657
727038886388 0 19 13 40 0 1 0 8 4 S0 141 15 206 15 15 5 126 16 FF3 3 13 5 6 6 9
 3 FFF2 3 346 347 348 349 350 125 17 .972250058965273 1 0 1 .972250058965273 1 0
 1 2 BBBBBBBB????0 0 0 0 45 195 346 .016 .0657727038886387 0 .0171282211302168 .
0654275948235228 -.00590323195971685 .02844389410931975 .0605334050041638 -.0644
141957503567 .04011988657275905 .04157836949110915 -.1178899708655186 .050935677
968519 .01315192944655176 -.1618611398725325 .014830160078418 .0658351416966164
 0 .0159588714931639 .0654827361641745 -.00590124750002447 .02727968694448165 .0
605198961159192 -.0643939594046518 .03896139068413645 .04150966150606375 -.11785
05382526646 .0497808673358054 .01304047701154784 -.161816523284403 .012362571285
0215 .0659531226058621 0 .0135032836114777 .0655871192796147 -.00589755986700269
 .0249445878118623 .0604968340328409 -.0643565750245113 .03674776734786175 .0413
845257049383 -.117778492665034 .0476738449491639 .01283712525070796 -.1617351175
999195 .0083199530715204 .0660937617802316 0 .00949807654571112 .065709692755775
9 -.00589240038187161 .02131421279962985 .0604512557516435 -.0643045718095542 .0
334932467549997 .0412041908615258 -.1176810118111402 .0447540578998719 .01255533
240336314 -.1616223104153355 .00409765932619042 .0661813563628961 0 .00532196994
101554 .0657816079462918 -.00588741088824878 .0176006992996141 .0603785829238135
 -.0642544195110296 .0302428839975092 .0410155935105258 -.117589915455791 .04191
75587554162 .01228157779149814 -.1615127210935255 .001333965381571482 .066199383
8392394 0 .00258630495190087 .0657906621032295 -.00588408581118088 .015145805741
79995 .060305837983065 -.0642209852660657 .02806881946229185 .0408769575526271 -
.117531112896935 .0399946398307098 .01209599412054596 -.161438428322711 -5741934
70548323e-31 .0661993838392394 0 .001263653790272756 .0657864291224115 -.0058823
9126622351 .01393653790272754 .0602631905429863 -.064203912662235 .0269728841124
548 .04080303785209305 -.1175015213960114 .039 .012 -.1614 -.001333965381571344
 .0661993838392394 0 -589973713551047e-19 .0657821961415936 -.00588069672126614
 .01272727006365534 .0602205431029077 -.0641868400584043 .0258769487626179 .0407
2911815155905 -.117471929895088 .0380053601692904 .01190400587945404 -.161361571
677289 -.004098260411371365 .0661813551799971 0 -.00279522675692998 .06575674258
85173 -.00587745729616429 .01027216174052274 .060128350919891 -.0641542474259847
 .02370269461693005 .0405824543296045 -.1174165198503772 .0360827309006202 .0117
184501636225 -.161287290097456 -.00832197533964292 .0660937104953088 0 -.0069726
5441243284 .065660802818501 -.0058728488418603 .00655825157678025 .0599597767923
596 -.0641078382291991 .0204514129455201 .04035367599390235 -.117340531178288 .0
332468786334125 .01144475798281104 -.161177725768017 -.0123646720638067 .0659530
317659204 0 -.01097787485185816 .0655139857229911 -.00586831872350313 .002928387
29454365 .0597609557660502 -.0640620164109428 .0171955341322516 .040109392731642
75 -.117268021662189 .0303274189945127 .01116299673431402 -.161064931233069 -.01
48310221837476 .0658350956835115 0 -.01343223129212414 .0653926762380378 -.00586
521331557824 .000594329362678816 .0596115490333493 -.0640303493336985 .014980544
44620476 .0399323788332073 -.1172190941804084 .0282199838294084 .010959605135631
04 -.1609835096007185 -.016 .0657727038886387 0 -.01460074872018894 .06532849035
56408 -.00586355941155457 -.000569411666080836 .0595320886041625 -.0640133580242
911 .01382088673170612 .03983693478337605 -.1171928016072352 .02706432203148615
 .01084807055344872 -.160938860127468 127 10 347 4 1 1 1 3 1 1 1 4 0 127 3 348 4
 1 4 128 10 349 .972250058965273 .975718801594614 .979187544223955 .982656286853
296 .986125029482638 .989593772111978 .993062514741319 .996531257370659 1 ?128 3
 350 0 .1 1 74 4 CI16 index_map_offset0 0 1 dCCZ20 11 2 0 0 295 303 0 0 0 0 0 0
 0 0 0 0 0 0 0 0 0 0 0 0 1 0 
