**ABCDEFGHIJKLMNOPQRSTUVWXYZabcdefghijklmnopqrstuvwxyz**************************
**PARASOLID !"#$%&'()*+,-./:;<=>?@[\]^_`{|}~0123456789**************************
**PART1;
MC=AMD64;
MC_MODEL=Intel64 Family 6 Model 60 Stepping 3, GenuineIntel;
MC_ID=unknown;
OS=Windows_NT;
OS_RELEASE=unknown;
FRU=Parasolid Version 27.0, build 207,  1-23-2015;
APPL=SOLIDWORKS 2015-2015109;
SITE=;
USER=unknown;
FORMAT=text;
GUISE=transmit;
KEY=Rotor_REV A;
FILE=Rotor_REV A.x_t;
DATE=Mon Sep 07 12:11:01 2015;
**PART2;
SCH=SCH_2700207_26105;
USFLD_SIZE=0;
**PART3;
**END_OF_HEADER*****************************************************************
T51 : TRANSMIT FILE created by modeller version 270020723 SCH_2700207_26105_1300
6196 0 12 30 CCCCCCCCCCCCCDI5 owner1040 0 CCCCCCCCCA13 boundary_mesh1006 0 A16 i
ndex_map_offset0 0 1 dA9 index_map82 0 A17 node_id_index_map82 0 A20 schema_embe
dding_map82 0 A5 child12 0 A14 lowest_node_id0 0 1 dZ1 995 0 2 0 0 0 0 1e3 1e-8
 0 3 0 1 0 1 1 4 5 6 7 8 9 10 0 0 0 0 0 0 0 70 11 CI9 list_type0 0 1 uI10 notran
smit0 0 1 lCCCDCCDI12 finger_index0 0 1 dI12 finger_block1012 0 CZ2 0 4 T1 0 0 2
 20 1 11 11 13 255 4 89 0 1 0 12 0 0 13 0 50 255 5 178 0 14 15 0 0 +.65010737114
1956 -1956492784223405e-34 0 -1 0 0 0 0 1 30 255 6 686 0 9 16 0 0 +-.14737837837
83784 .254623606438164 -.253895271507242 0 -1 -104744440165294e-28 29 255 7 683
 0 10 17 0 -.1473783783783784 -.0192450529185668 -.2538952715072445 19 8 CCCCCCC
A5 owner12 0 Z8 93 0 1 13 0 18 V0 16 255 9 684 0 ?19 0 20 6 0 0 1 18 255 10 681
 0 21 0 22 7 ?1 17 255 21 0 23 24 25 10 26 27 0 19 -18 22 557 0 28 10 29 17 ?1 1
7 28 0 30 31 32 22 33 34 0 35 -18 29 433 0 36 22 37 38 ?1 29 17 559 0 22 38 7 -.
1473783783783784 -.2538952715072445 .01924505291857205 29 38 435 0 29 39 17 -.14
73783783783784 .01924505291856805 .2538952715072445 29 39 307 0 37 40 38 -.14737
83783783784 .2538952715072445 -.01924505291856555 18 37 305 0 41 29 42 39 ?1 29
 40 406 0 42 43 39 .133 .2538952715072445 -.0417016676353612 18 42 354 0 44 37 4
5 40 ?1 29 43 407 0 45 46 40 .133 .2538952715072445 .04170166763536135 18 45 351
 0 47 42 48 43 ?1 29 46 408 0 48 49 43 -.133 .2538952715072445 -.041701667635361
45 18 48 355 0 50 45 51 46 ?1 29 49 409 0 51 52 46 -.133 .2538952715072445 .0417
016676353616 18 51 352 0 53 48 54 49 ?1 29 52 411 0 54 55 49 -.1473783783783784
 .2538952715072445 .01924505291856555 18 54 353 0 56 51 57 52 ?1 29 55 542 0 57
 58 52 .13299999999999 -.04170166763538825 .253895271507244 18 57 487 0 59 54 60
 55 ?1 29 58 543 0 60 61 55 .1329999999999916 .0417016676353821 .253895271507244
5 18 60 490 0 62 57 63 58 ?1 29 61 544 0 63 64 58 -.133 -.0417016676353643 .2538
95271507244 18 63 488 0 65 60 66 61 ?1 29 64 545 0 66 67 61 -.133 .0417016676353
622 .2538952715072445 18 66 491 0 68 63 69 64 ?1 29 67 547 0 69 70 64 -.14737837
83783784 -.0192450529185703 .2538952715072445 18 69 489 0 71 66 72 67 ?1 29 70 6
66 0 72 73 67 .1329999999999936 -.2538952715072445 -.0417016676353801 18 72 611
 0 74 69 75 70 ?1 29 73 667 0 75 76 70 .132999999999994 -.2538952715072445 .0417
0166763537875 18 75 614 0 77 72 78 73 ?1 29 76 668 0 78 79 73 -.133 -.2538952715
072445 -.04170166763536485 18 78 612 0 80 75 81 76 ?1 29 79 669 0 81 82 76 -.133
 -.2538952715072445 .0417016676353651 18 81 615 0 32 78 83 79 ?1 29 82 671 0 83
 84 79 -.1473783783783784 -.2538952715072445 -.01924505291857205 18 83 613 0 85
 81 86 82 ?1 29 84 790 0 86 87 82 .1329999999999882 .0417016676353938 -.25389527
1507244 18 86 735 0 88 83 89 84 ?1 29 87 791 0 89 90 84 .132999999999988 -.04170
166763538905 -.253895271507245 18 89 738 0 91 86 92 87 ?1 29 90 792 0 92 93 87 -
.133 -.04170166763536075 -.253895271507245 18 92 739 0 25 89 94 90 ?1 29 93 793
 0 94 95 90 -.133 .0417016676353655 -.253895271507244 18 94 736 0 96 92 97 93 ?1
 29 95 795 0 97 0 93 -.1473783783783784 .0192450529185716 -.253895271507244 18 9
7 737 0 24 94 0 95 ?1 17 24 0 23 96 21 97 19 9 0 98 -15 255 23 744 0 25 99 0 17
 96 0 23 88 24 94 98 100 0 101 -17 19 0 102 85 103 10 24 9 0 104 +17 98 0 105 10
6 107 97 96 100 0 103 +15 105 582 0 107 108 0 17 106 0 105 109 98 37 103 110 0 0
 -17 107 0 105 98 109 94 111 112 0 0 +16 100 726 0 ?98 27 113 114 0 0 1 17 103 0
 102 19 115 97 106 110 0 0 +15 102 129 0 103 116 0 17 115 0 102 103 56 37 117 11
8 0 106 +16 110 306 0 ?103 119 120 121 120 122 1 16 119 445 0 ?53 123 110 124 11
2 123 1 16 120 682 0 ?85 110 125 121 125 110 1 31 255 121 185 0 110 126 124 0 +-
.1473783783783784 -255351295663786e-30 0 -1 0 0 0 0 1 .254623606438162 16 122 43
4 0 ?56 125 127 121 110 125 1 17 56 0 102 115 128 54 129 122 0 117 +16 125 558 0
 ?71 120 122 121 122 120 1 16 127 122 0 ?130 122 131 126 0 0 1 17 130 0 132 130
 130 0 133 127 0 0 +16 131 112 0 ?134 127 135 136 0 0 1 31 126 184 0 127 136 121
 0 +-.1473783783783784 -255351295663786e-30 0 -1 0 0 0 0 1 .2488952715072445 31
 136 182 0 131 137 126 0 +.1493073711419556 -255351295663786e-30 0 -1 0 0 0 0 1
 .2488952715072445 31 137 180 0 135 138 136 0 +.4386804116964585 -25535129566378
6e-30 0 -1 0 0 0 0 1 .171768985904908 16 135 102 0 ?139 131 140 137 0 0 1 31 138
 179 0 140 141 137 0 +.647107371141956 -255351295663786e-30 0 -1 0 0 0 0 1 .0747
870499271791 16 140 97 0 ?142 135 143 138 0 0 1 38 255 141 396 0 143 144 138 0 +
145 146 147 148 148 16 143 340 0 ?149 140 150 141 0 0 1 38 144 397 0 151 152 141
 0 +153 146 154 155 155 54 255 145 175 0 156 153 157 158 +.1905135135135135 -266
4535259100375e-31 0 -1 0 0 .406602890758404 .16 0 0 1 50 146 394 0 159 160 161 1
62 +.05 .2538952715072445 0 0 -1 0 0 0 -1 40 255 35 147 0 1 35 .0273888586924354
5 .3968384052937555 ??.142760157373416 .2538952715072445 0 .1331116700938406 .25
38952715072445 .0414357308785753 .0580109120429759 .2538952715072445 .1896716562
49167 .03177950629222295 .2538952715072445 .291429576447574 .03640069589034155 .
2538952715072445 .3710558637346595 .0607407398757913 .2538952715072445 .43096379
6286687 .1049697077263042 .2538952715072445 .478644394248791 .155860756100605 .2
538952715072445 .502281767833727 .205988567018613 .2538952715072445 .50569412072
3803 .2523450518143715 .2538952715072445 .492589706161183 .2926310511404035 .253
8952715072445 .464974724549926 .324430227399006 .2538952715072445 .4239477223091
245 .344844432576728 .2538952715072445 .3700989251827755 .348916249959782 .25389
52715072445 .28815379900747 .3167018596119425 .2538952715072445 .174771832924169
5 .2695037394694975 .2538952715072445 .0840977220233222 .24613126427755 .2538952
715072445 .03702476062926275 .2384645496005645 .2538952715072445 .00560937848689
148 .2425679841263915 .2538952715072445 -.02681508012473515 .2856915321275055 .2
538952715072445 -.113207394338985 .343932713434571 .2538952715072445 -.256892331
2097685 .3496564993349625 .2538952715072445 -.3385048341465275 .327628324429673
 .2538952715072445 -.4179939866566745 .293508525912564 .2538952715072445 -.46413
9654260745 .245294249275824 .2538952715072445 -.495692743002924 .194507617144353
5 .2538952715072445 -.506477568345407 .146380656675921 .2538952715072445 -.49958
0584509523 .10342574335242 .2538952715072445 -.477524301705552 .0679641849743451
 .2538952715072445 -.4416978272742995 .04266569598477625 .2538952715072445 -.392
865069822219 .03088163426456225 .2538952715072445 -.3313635804882215 .0422338179
363467 .2538952715072445 -.2357858708049805 .0927319521194993 .2538952715072445
 -.1179577518193654 .1337253247012256 .2538952715072445 -.0399545706759981 .1427
60157373416 .2538952715072445 487375612205167e-31 41 255 1 148 H.142760157373416
 .2538952715072445 487375612205167e-31 14 255 159 357 163 ?164 165 166 4 146 -0
 0 164 165 18 50 160 526 0 167 168 146 0 +.015 -921385415876486e-30 .26389527150
72445 0 3491481338843135e-30 -1 0 1 3491481338843135e-30 51 255 161 393 0 169 14
6 170 0 -0 -.1411401224500224 0 0 -1 0 .05 0 0 -1 141 255 162 171 172 173 146 38
 171 399 0 174 175 152 0 +176 146 177 178 178 141 172 141 179 162 146 141 173 15
2 162 179 146 38 152 398 0 180 171 144 0 +176 146 181 182 182 141 179 144 173 17
2 146 16 180 344 0 ?109 151 174 152 0 0 1 54 176 173 0 183 184 153 185 +-.147378
3783783784 -2664535259100375e-31 0 -1 0 0 .294623606438162 .04 0 0 1 40 23 181 0
 1 23 .01288999989081692 .391493289772764 ??-.1260767866846672 .2538952715072445
 -.0594712706927227 -.107783673683891 .2538952715072445 -.1379338734661974 -.110
535596353407 .2538952715072445 -.1782159921951325 -.1169349069573212 .2538952715
072445 -.195709134449672 -.1284485168791504 .2538952715072445 -.210583340929738
 -.1372263574310326 .2538952715072445 -.215952140150556 -.147385534569248 .25389
52715072445 -.217968228564471 -.1563495936977255 .2538952715072445 -.21640059017
0152 -.164274406575207 .2538952715072445 -.21217622083397 -.1737260589846485 .25
38952715072445 -.202436022245977 -.1826165518191105 .2538952715072445 -.18398867
70566075 -.187378214558202 .2538952715072445 -.1496921189960356 -.17662819559606
4 .2538952715072445 -.0837098994790667 -.158904380858957 .2538952715072445 -.035
17433551883505 -.1552448275219805 .2538952715072445 -.02772680330135015 -.150544
0759557905 .2538952715072445 -.0208394258935065 -.14864357608825 .25389527150724
45 -.01950806430921305 -.1475668607086608 .2538952715072445 -.0192509273706389 -
.1464631757765692 .2538952715072445 -.0193831024622657 -.145198057838001 .253895
2715072445 -.02001646413008465 -.1428374532997078 .2538952715072445 -.0224081022
585052 -.1360281142042762 .2538952715072445 -.03479011735717875 -.12607678668466
72 .2538952715072445 -.0594712706927227 41 1 182 H-.1260767866846672 .2538952715
072445 -.0594712706927227 14 183 135 186 ?116 187 188 4 176 -189 190 116 187 18
 50 184 172 0 116 191 176 0 +-.1473783783783784 .2546236064381615 0 1 0 0 0 0 -1
 54 153 174 0 187 176 145 192 -0 -255351295663786e-30 0 -1 0 0 -.087972281655999
 .37 0 0 1 141 185 171 193 194 176 141 193 195 196 185 176 141 194 152 185 197 1
76 141 197 198 194 199 176 38 198 535 0 200 201 202 0 +176 203 204 205 205 141 1
99 202 197 206 176 38 202 534 0 207 198 208 0 +176 203 209 210 210 141 206 211 1
99 212 176 38 211 659 0 34 213 214 0 +176 215 216 217 217 141 212 214 206 196 17
6 38 214 658 0 218 211 219 0 +176 215 220 221 221 141 196 114 212 193 176 38 114
 783 0 100 222 195 0 +176 223 224 225 225 31 222 784 0 113 226 114 0 +0 27641562
4762946e-29 -.2638952715072445 0 -104744440165294e-28 1 0 -1 -104744440165294e-2
8 .015 38 195 782 0 27 114 227 0 +176 223 228 229 229 50 223 778 0 99 0 230 231
 +.05 2659411807464165e-30 -.2538952715072445 0 -104744440165294e-28 1 0 -1 -104
744440165294e-28 40 26 224 0 1 26 .01235020554868004 .388639318126249 ??-.149470
705509993 .0199564936449512 -.253895271507244 -.152796230210513 .023626738759600
75 -.253895271507244 -.1614505894985875 .0409767293909714 -.253895271507244 -.18
40623290078795 .1148833097746394 -.253895271507243 -.187106989989663 .1584387663
030695 -.253895271507243 -.181702977907696 .1867196291623575 -.2538952715072425
 -.17352791664978 .2027123129908925 -.2538952715072425 -.164392615266799 .212089
9381705745 -.253895271507242 -.1554146717553825 .21671405805627 -.25389527150724
2 -.1453247872204462 .2178872390094675 -.253895271507242 -.1366718054923742 .215
7208975408445 -.253895271507242 -.128853551214242 .210919347483267 -.25389527150
7242 -.1193853242280542 .1999823179164485 -.2538952715072425 -.1108351268951746
 .1794148591577675 -.2538952715072425 -.107592016590907 .1411542928879884 -.2538
95271507243 -.123743451758058 .0660780017726504 -.2538952715072435 -.13001457071
49836 .0490451203889859 -.253895271507244 -.1345001195040146 .0382035818921071 -
.253895271507244 -.1377230535636632 .0312107472599235 -.253895271507244 -.140095
0513965888 .026670956610707 -.253895271507244 -.142142532593576 .023361320054276
1 -.253895271507244 -.144657123901899 .02043462631117015 -.253895271507244 -.145
782592321145 .01966188488693635 -.253895271507244 -.1471023866296452 .0192576463
9615785 -.253895271507244 -.1483124816319592 .01938884284592715 -.25389527150724
4 -.1494707055099932 .01995649364495115 -.253895271507244 41 1 225 H-.1494707055
099932 .01995649364495115 -.253895271507244 14 99 741 232 ?233 234 235 4 223 -0
 0 233 234 18 51 230 777 0 236 223 237 0 -0 -1478364311088864e-30 .1411401224500
224 0 -104744440165294e-28 1 .05 0 -1 -104744440165294e-28 141 231 114 238 239 2
23 141 238 240 241 231 223 141 239 195 231 241 223 141 241 227 239 238 223 38 22
7 781 0 242 195 240 0 +153 223 243 244 244 16 242 723 0 ?245 246 27 227 246 246
 1 38 240 780 0 247 227 248 0 +145 223 249 250 250 40 20 243 0 1 20 .01016741831
997306 .398228448861141 ??278998862510933e-31 -.1227877234115254 -.2538952715072
455 .0468996524143771 -.1157684900990622 -.2538952715072455 .0895293877802676 -.
0948464498083494 -.2538952715072455 .1241993014364642 -.0585537518487469 -.25389
5271507245 .1400226703472894 -.01766885056967545 -.2538952715072445 .13960187326
71196 .01999091602043125 -.253895271507244 .127363691102106 .0532330399725146 -.
253895271507244 .1044373168706478 .0825639671556384 -.2538952715072435 .07025720
79617291 .1064196389534134 -.2538952715072435 .02526702574478925 .12079061650143
7 -.253895271507243 -.02670971499583195 .1205539708397982 -.253895271507243 -.07
75601715577152 .1025065553479556 -.2538952715072435 -.1169356647085012 .06884434
55784251 -.2538952715072435 -.13771217975763 .0280942029817299 -.253895271507244
 -.1409659328673614 -.0107360321995833 -.2538952715072445 -.1315352328621234 -.0
450318089545744 -.253895271507245 -.1114002167189054 -.0754157797783537 -.253895
271507245 -.0801654157935673 -.1009786055179284 -.2538952715072455 -.03776650808
8847 -.1182815592037666 -.2538952715072455 67061085051815e-30 -.1227877234115252
 -.2538952715072455 41 1 244 H67061085051815e-30 -.1227877234115252 -.2538952715
072455 16 247 724 0 ?251 252 246 240 0 0 1 31 248 663 0 252 240 253 0 +0 -.25389
52715072445 0 0 1 0 0 0 1 .05 40 35 249 0 1 35 .02738885869244035 .3968384052937
57 ??.142760157373417 266985154147623e-29 -.2538952715072445 .1331116700938412 .
0414357308785777 -.253895271507244 .0580109120429764 .1896716562491685 -.2538952
715072425 .03177950629222305 .291429576447576 -.2538952715072415 .03640069589034
14 .3710558637346615 -.2538952715072405 .0607407398757911 .4309637962866885 -.25
389527150724 .104969707726304 .478644394248793 -.2538952715072395 .1558607561006
045 .50228176783373 -.253895271507239 .2059885670186125 .505694120723806 -.25389
5271507239 .252345051814371 .492589706161186 -.2538952715072395 .292631051140403
 .464974724549928 -.2538952715072395 .3244302273990055 .4239477223091275 -.25389
527150724 .344844432576728 .3700989251827785 -.2538952715072405 .348916249959782
 .288153799007473 -.2538952715072415 .316701859611943 .174771832924173 -.2538952
715072425 .2695037394694975 .0840977220233256 -.2538952715072435 .24613126427754
95 .03702476062926585 -.253895271507244 .238464549600564 .00560937848689484 -.25
38952715072445 .2425679841263905 -.0268150801247317 -.2538952715072445 .28569153
21275015 -.1132073943389764 -.2538952715072455 .343932713434572 -.25689233120977
2 -.253895271507247 .3496564993349625 -.338504834146527 -.253895271507248 .32762
8324429674 -.41799398665667 -.253895271507249 .2935085259125655 -.46413965426074
1 -.2538952715072495 .245294249275826 -.495692743002921 -.2538952715072495 .1945
07617144355 -.506477568345405 -.2538952715072495 .1463806566759224 -.49958058450
9521 -.2538952715072495 .103425743352421 -.47752430170555 -.2538952715072495 .06
7964184974346 -.4416978272742985 -.253895271507249 .04266569598477675 -.39286506
98222185 -.2538952715072485 .03088163426456235 -.331363580488221 -.2538952715072
48 .04223381793634595 -.235785870804981 -.253895271507247 .0927319521194989 -.11
79577518193642 -.2538952715072455 .133725324701226 -.0399545706759968 -.25389527
1507245 .142760157373417 2695788577634555e-30 -.2538952715072445 41 1 250 H.1427
60157373417 2695788577634555e-30 -.2538952715072445 16 252 608 0 ?254 255 247 24
8 0 0 1 31 253 662 0 255 248 256 0 +0 -.2688952715072445 0 0 1 0 0 0 1 .05 16 25
5 607 0 ?257 258 252 253 0 0 1 31 256 661 0 258 253 213 0 +0 -.2688952715072445
 0 0 1 0 0 0 1 .015 16 258 606 0 ?259 260 255 256 0 0 1 31 213 660 0 260 256 211
 0 +0 -.2638952715072445 0 0 1 0 0 0 1 .015 16 260 605 0 ?261 34 258 213 0 0 1 1
7 261 0 262 261 261 0 263 260 0 0 +16 34 604 0 ?33 218 260 211 0 0 1 17 33 0 264
 65 265 81 28 34 0 266 +16 218 602 0 ?267 268 34 214 0 0 1 17 267 0 269 104 80 8
3 270 218 0 0 +16 268 599 0 ?271 272 218 219 272 272 1 17 271 0 273 59 266 75 32
 268 0 274 +16 272 601 0 ?275 276 268 219 268 268 1 38 219 657 0 268 214 277 0 +
153 215 278 279 279 38 277 656 0 276 219 280 0 +145 215 281 282 282 50 215 654 0
 283 284 285 286 +.05 -.2538952715072445 0 0 1 0 0 0 1 40 20 278 0 1 20 .0101674
1831997312 .3982284488611425 ??276497133920899e-31 -.2538952715072445 .122787723
4115284 .0468996524143775 -.2538952715072445 .1157684900990654 .0895293877802682
 -.2538952715072445 .0948464498083521 .124199301436465 -.2538952715072445 .05855
37518487494 .1400226703472902 -.2538952715072445 .0176688505696776 .139601873267
1204 -.2538952715072445 -.01999091602042915 .1273636911021064 -.2538952715072445
 -.0532330399725126 .104437316870648 -.2538952715072445 -.0825639671556365 .0702
572079617293 -.2538952715072445 -.106419638953412 .02526702574478905 -.253895271
5072445 -.1207906165014352 -.02670971499583245 -.2538952715072445 -.120553970839
7964 -.0775601715577159 -.2538952715072445 -.1025065553479536 -.116935664708502
 -.2538952715072445 -.0688443455784229 -.1377121797576306 -.2538952715072445 -.0
280942029817273 -.140965932867362 -.2538952715072445 .01073603219958596 -.131535
232862124 -.2538952715072445 .0450318089545772 -.111400216718906 -.2538952715072
445 .0754157797783567 -.0801654157935674 -.2538952715072445 .1009786055179314 -.
03776650808884675 -.2538952715072445 .1182815592037696 2739642974934245e-32 -.25
38952715072445 .1227877234115284 41 1 279 H2739642974934245e-32 -.25389527150724
45 .1227877234115284 14 283 617 287 ?288 289 290 4 215 -0 0 288 289 18 50 284 77
4 0 233 291 215 0 +.015 276415624762946e-29 -.2638952715072445 0 -10474444016529
4e-28 1 0 -1 -104744440165294e-28 51 285 653 0 234 215 292 0 -0 .141140122450022
4 0 0 1 0 .05 0 0 1 141 286 211 293 294 215 141 293 277 295 286 215 141 294 214
 286 295 215 141 295 219 294 293 215 14 234 635 296 ?99 297 298 4 285 -0 0 99 29
7 18 50 292 652 0 297 285 299 0 +.015 -.2688952715072445 0 0 1 0 0 0 1 14 297 63
1 300 ?234 301 302 4 292 -0 0 234 301 18 51 299 651 0 301 292 303 0 +0 .14114012
24500224 0 0 1 0 .015 0 0 1 14 301 627 304 ?297 288 305 4 299 -0 0 297 288 18 50
 303 650 0 288 299 203 0 +.015 -.2638952715072445 0 0 1 0 0 0 1 14 288 624 306 ?
301 283 307 4 303 -0 0 301 283 18 50 203 530 0 308 303 309 310 +.05 -88647060248
8054e-30 .2538952715072445 0 3491481338843135e-30 -1 0 1 3491481338843135e-30 14
 308 493 311 ?167 169 312 4 203 -0 0 167 169 18 51 309 529 0 289 203 313 0 -0 49
2788103696288e-30 -.1411401224500224 0 3491481338843135e-30 -1 .05 0 1 349148133
8843135e-30 141 310 198 314 315 203 141 314 316 317 310 203 141 315 202 310 317
 203 141 317 208 315 314 203 38 208 533 0 318 202 316 0 +153 203 319 320 320 16
 318 475 0 ?321 322 207 208 322 322 1 38 316 532 0 323 208 324 0 +145 203 325 32
6 326 40 20 319 0 1 20 .0101674183199731 .3982284488611415 ??278998862510932e-31
 .1227877234115266 .253895271507245 .0468996524143771 .1157684900990636 .2538952
71507245 .0895293877802675 .0948464498083507 .2538952715072445 .1241993014364642
 .0585537518487483 .2538952715072445 .1400226703472892 .01766885056967655 .25389
52715072445 .1396018732671194 -.01999091602043005 .2538952715072445 .12736369110
2106 -.0532330399725133 .253895271507244 .1044373168706474 -.0825639671556371 .2
53895271507244 .0702572079617291 -.1064196389534124 .253895271507244 .0252670257
447892 -.120790616501436 .253895271507244 -.02670971499583205 -.120553970839797
 .253895271507244 -.0775601715577152 -.1025065553479544 .253895271507244 -.11693
56647085014 -.068844345578424 .253895271507244 -.13771217975763 -.02809420298172
865 .2538952715072445 -.1409659328673612 .01073603219958458 .2538952715072445 -.
1315352328621234 .0450318089545757 .2538952715072445 -.1114002167189054 .0754157
797783551 .2538952715072445 -.0801654157935672 .1009786055179296 .25389527150724
45 -.0377665080888468 .118281559203768 .253895271507245 545860893775216e-31 .122
7877234115264 .253895271507245 41 1 320 H545860893775216e-31 .1227877234115264 .
253895271507245 16 323 476 0 ?327 328 322 316 0 0 1 31 324 403 0 328 316 329 0 +
0 .2538952715072445 0 0 -1 0 0 0 -1 .05 40 35 325 0 1 35 .0273888586924428 .3968
384052937585 ??.142760157373417 -882995863513096e-30 .2538952715072445 .13311167
0093842 -.0414357308785752 .253895271507244 .0580109120429781 -.189671656249163
 .2538952715072435 .0317795062922232 -.291429576447573 .2538952715072435 .036400
69589034105 -.371055863734659 .253895271507243 .0607407398757903 -.4309637962866
865 .253895271507243 .104969707726303 -.478644394248791 .253895271507243 .155860
756100604 -.502281767833728 .2538952715072425 .2059885670186115 -.50569412072380
4 .2538952715072425 .2523450518143705 -.492589706161185 .2538952715072425 .29263
10511404025 -.464974724549928 .253895271507243 .324430227399005 -.42394772230912
7 .253895271507243 .3448444325767275 -.3700989251827785 .253895271507243 .348916
2499597825 -.288153799007474 .2538952715072435 .316701859611944 -.17477183292417
5 .253895271507244 .269503739469498 -.0840977220233254 .253895271507244 .2461312
6427755 -.03702476062926555 .2538952715072445 .238464549600564 -.005609378486894
43 .2538952715072445 .2425679841263905 .02681508012473235 .2538952715072445 .285
6915321275 .1132073943389748 .253895271507245 .343932713434573 .2568923312097765
 .2538952715072455 .3496564993349625 .3385048341465295 .2538952715072455 .327628
324429674 .417993986656671 .253895271507246 .293508525912566 .464139654260742 .2
53895271507246 .245294249275826 .495692743002922 .253895271507246 .1945076171443
55 .506477568345406 .253895271507246 .1463806566759228 .499580584509522 .2538952
71507246 .1034257433524214 .477524301705552 .253895271507246 .0679641849743463 .
4416978272743 .253895271507246 .0426656959847769 .39286506982222 .25389527150724
6 .03088163426456235 .331363580488223 .2538952715072455 .0422338179363457 .23578
5870804983 .253895271507245 .0927319521194985 .117957751819366 .253895271507245
 .1337253247012264 .03995457067599745 .2538952715072445 .142760157373417 -853767
916145696e-30 .2538952715072445 41 1 326 H.142760157373417 -853767916145696e-30
 .2538952715072445 16 328 348 0 ?330 331 323 324 0 0 1 31 329 402 0 331 324 332
 0 +0 .2688952715072445 0 0 -1 0 0 0 -1 .05 16 331 347 0 ?333 334 328 329 0 0 1
 31 332 401 0 334 329 175 0 +0 .2688952715072445 0 0 -1 0 0 0 -1 .015 16 334 346
 0 ?335 336 331 332 0 0 1 31 175 400 0 336 332 171 0 +0 .2638952715072445 0 0 -1
 0 0 0 -1 .015 16 336 345 0 ?337 174 334 175 0 0 1 17 337 0 338 337 337 0 339 33
6 0 0 +16 174 342 0 ?340 180 336 171 0 0 1 17 340 0 188 129 53 54 341 174 0 0 +1
5 188 134 0 129 183 0 17 129 0 188 342 340 29 56 122 0 0 -17 53 0 188 340 342 51
 343 119 0 341 +17 341 0 344 345 117 51 340 174 0 346 -15 344 360 0 50 159 0 17
 345 0 344 44 341 45 346 151 0 149 -17 117 0 344 341 41 54 115 118 0 340 -17 346
 0 347 343 47 51 345 151 0 0 +15 347 139 0 343 187 0 17 343 0 347 321 346 66 53
 119 0 0 -17 47 0 347 346 321 45 348 349 0 345 +16 151 341 0 ?346 150 180 144 15
0 150 1 16 150 339 0 ?350 143 151 144 151 151 1 17 350 0 351 352 111 42 50 150 0
 353 +15 351 714 0 352 12 0 17 352 0 351 101 350 86 353 354 0 0 +17 111 0 351 35
0 101 48 107 112 0 0 -17 50 0 344 41 44 48 350 150 0 109 -17 353 0 355 149 251 4
2 352 354 0 0 -15 355 256 0 356 156 357 17 149 0 355 348 353 45 44 143 0 0 +17 2
51 0 355 353 356 86 91 247 0 352 +16 354 326 0 ?352 358 359 360 359 349 1 16 358
 142 0 ?361 362 354 363 0 0 1 16 359 693 0 ?74 354 364 360 364 354 1 31 360 187
 0 354 124 363 0 +.133 -255351295663786e-30 0 -1 0 0 0 0 1 .2572971783314145 16
 349 459 0 ?47 364 112 360 354 364 1 16 364 569 0 ?59 359 349 360 349 359 1 16 1
12 316 0 ?107 349 365 124 365 119 1 16 365 703 0 ?80 112 123 124 123 112 1 31 12
4 186 0 112 121 360 0 +-.133 -255351295663786e-30 0 -1 0 0 0 0 1 .25729717833141
45 17 80 0 269 267 26 78 366 365 0 270 +16 123 579 0 ?65 365 119 124 119 365 1 1
7 65 0 264 367 33 63 266 123 0 368 +15 264 448 0 265 190 0 17 367 0 264 265 65 6
9 368 207 0 0 +17 266 0 273 271 369 81 65 123 0 0 -17 368 0 370 371 372 63 367 2
07 0 369 -15 370 496 0 68 308 0 17 371 0 370 62 368 57 369 322 0 327 -17 372 0 3
70 368 36 69 128 373 0 367 -16 207 478 0 ?367 318 200 202 0 0 1 17 369 0 273 266
 59 63 371 322 0 0 +15 273 462 0 266 374 0 17 59 0 273 369 271 57 274 364 0 371
 +16 322 477 0 ?369 323 318 208 318 318 1 17 274 0 355 375 327 75 59 364 0 0 -17
 375 0 355 356 274 72 77 276 0 0 +17 327 0 355 274 348 57 62 323 0 0 +17 348 0 3
55 327 149 60 47 349 0 0 -17 62 0 370 68 371 60 327 323 0 321 -17 68 0 370 36 62
 66 321 318 0 342 -17 321 0 347 47 343 60 68 318 0 348 +17 36 0 370 372 68 29 34
2 200 0 128 -17 342 0 188 53 129 66 36 200 0 343 +16 200 480 0 ?342 207 376 198
 0 0 1 16 376 481 0 ?377 200 378 201 0 0 1 17 377 0 379 377 377 0 380 376 0 0 +1
6 378 482 0 ?381 376 382 383 0 0 1 31 201 536 0 376 383 198 0 +0 -92138541587648
6e-30 .2638952715072445 0 3491481338843135e-30 -1 0 1 3491481338843135e-30 .015
 31 383 537 0 378 384 201 0 +0 -938842822570702e-30 .2688952715072445 0 34914813
38843135e-30 -1 0 1 3491481338843135e-30 .015 31 384 538 0 382 280 383 0 +0 -938
842822570702e-30 .2688952715072445 0 3491481338843135e-30 -1 0 1 349148133884313
5e-30 .05 16 382 483 0 ?385 378 386 384 0 0 1 31 280 539 0 386 277 384 0 +0 -886
470602488054e-30 .2538952715072445 0 3491481338843135e-30 -1 0 1 349148133884313
5e-30 .05 16 386 484 0 ?387 382 276 280 0 0 1 17 387 0 312 387 387 0 388 386 0 0
 +16 276 600 0 ?375 386 272 277 0 0 1 15 312 495 0 387 308 370 17 388 0 389 388
 388 0 387 386 0 0 -15 389 513 0 388 289 390 14 289 511 391 ?283 392 389 4 309 -
0 0 283 392 18 15 390 514 0 385 289 0 17 385 0 390 385 385 0 393 382 0 0 +17 393
 0 394 393 393 0 385 382 0 0 -15 394 509 0 393 392 395 14 392 507 396 ?289 397 3
94 4 313 -0 0 289 397 18 15 395 510 0 381 392 0 17 381 0 395 381 381 0 398 378 0
 0 +17 398 0 399 398 398 0 381 378 0 0 -15 399 505 0 398 397 379 14 397 503 400
 ?392 167 399 4 168 -0 0 392 167 18 15 379 506 0 377 397 0 81 255 1 400 970 401
 397 402 0 396 403 404 14 167 500 403 ?397 308 405 4 160 -0 0 397 308 18 51 168
 527 0 397 313 160 0 +0 492788103696288e-30 -.1411401224500224 0 349148133884313
5e-30 -1 .015 0 1 3491481338843135e-30 13 18 92 0 0 0 0 0 0 8 12 14 12 715 406 ?
189 0 351 4 153 -407 187 189 0 18 81 1 406 972 401 12 408 0 403 409 410 14 189 7
07 409 ?407 12 269 4 176 -108 183 407 12 18 14 407 591 411 ?108 189 412 4 153 -3
74 12 108 189 18 14 187 140 413 ?183 156 347 4 153 -12 374 183 156 18 81 1 413 9
75 401 187 414 0 411 415 416 14 156 145 415 ?187 417 355 4 145 -0 0 187 417 18 1
4 374 463 418 ?190 108 273 4 153 -187 407 190 108 18 81 1 418 977 401 374 419 0
 415 420 421 14 190 449 420 ?14 374 264 4 176 -183 108 14 374 18 14 108 583 422
 ?374 407 105 4 176 -190 189 374 407 18 81 1 422 979 401 108 423 0 420 424 425 8
0 255 1 401 426 427 9000 1 1 1 1 1 1 1 1 0 FFFFTFTFFFFFFF1 81 1 423 847 428 108
 0 422 429 419 430 81 1 420 978 401 190 431 0 418 422 432 81 1 424 980 401 169 4
33 0 422 434 435 82 255 1 425 -1939340229 14 169 375 424 ?308 436 437 4 161 -0 0
 308 436 18 81 1 433 865 428 169 0 424 438 439 440 81 1 434 981 401 436 438 0 42
4 441 442 82 1 435 -2052127686 14 436 371 434 ?169 443 444 4 170 -0 0 169 443 18
 81 1 438 864 428 436 0 434 445 433 446 81 1 441 982 401 443 445 0 434 447 448 8
2 1 442 -2051537862 14 443 367 441 ?436 164 449 4 450 -0 0 436 164 18 81 1 445 8
63 428 443 0 441 451 438 452 81 1 447 983 401 164 451 0 441 453 454 82 1 448 -20
50948038 14 164 364 447 ?443 159 455 4 456 -0 0 443 159 18 81 1 451 862 428 164
 0 447 457 445 458 81 1 453 984 401 165 459 0 447 460 461 82 1 454 -2050358214 1
4 165 100 453 ?159 462 463 4 464 -0 0 159 462 18 81 1 459 860 428 165 0 453 465
 457 466 81 1 460 985 401 462 465 0 453 467 468 82 1 461 -2114321352 14 462 105
 460 ?165 469 470 4 471 -0 0 165 469 18 81 1 465 859 428 462 0 460 472 459 473 8
1 1 467 986 401 469 472 0 460 474 475 82 1 468 -2113731528 14 469 110 467 ?462 4
76 477 4 478 -0 0 462 476 18 81 1 472 858 428 469 0 467 479 465 480 81 1 474 987
 401 476 479 0 467 481 482 82 1 475 -2113141704 14 476 120 474 ?469 116 483 4 19
1 -0 0 469 116 18 81 1 479 857 428 476 0 474 484 472 485 81 1 481 988 401 417 48
6 0 474 487 488 82 1 482 -2111962056 14 417 150 481 ?156 489 490 4 157 -0 0 156
 489 18 81 1 486 852 428 417 0 481 491 492 493 81 1 487 989 401 489 491 0 481 49
4 495 82 1 488 -2108423112 14 489 155 487 ?417 14 496 4 15 -0 0 417 14 18 81 1 4
91 851 428 489 0 487 497 486 498 81 1 494 990 401 14 497 0 487 499 500 82 1 495
 -2107833288 14 14 160 494 ?489 190 501 4 5 -0 0 489 190 18 81 1 497 850 428 14
 0 494 431 491 502 81 1 499 991 401 116 484 0 494 503 504 82 1 500 -2107243464 1
4 116 130 499 ?476 183 505 4 184 -0 0 476 183 18 81 1 484 856 428 116 0 499 506
 479 507 81 1 503 992 401 233 508 0 499 509 510 82 1 504 -2110782405 14 233 748
 503 ?511 99 512 4 284 -0 0 511 99 18 81 1 508 877 428 233 0 503 513 514 515 81
 1 509 993 401 511 514 0 503 516 517 82 1 510 -1907293125 14 511 751 509 ?518 23
3 519 4 291 -0 0 518 233 18 81 1 514 878 428 511 0 509 508 520 521 81 1 516 994
 401 518 520 0 509 522 523 82 1 517 -1907882949 14 518 755 516 ?236 511 524 4 23
7 -0 0 236 511 18 81 1 520 879 428 518 0 516 514 525 526 81 1 522 995 401 236 52
5 0 516 0 527 82 1 523 -1908472773 14 236 759 522 ?0 518 528 4 230 -0 0 0 518 18
 81 1 525 880 428 236 0 522 520 0 529 82 1 527 -1909062597 80 1 428 0 530 8001 0
 0 0 0 3 5 0 0 0 FFFFTFTFFFFFFF2 83 255 3 529 1 1 .501960784313726 79 255 15 530
 SDL/TYSA_COLOUR15 528 761 0 531 236 532 17 531 0 528 531 531 0 533 534 0 0 -15
 532 762 0 535 236 0 17 535 0 532 535 535 0 536 537 0 0 +17 536 0 524 536 536 0
 535 537 0 0 -16 537 731 0 ?535 538 534 539 0 0 1 16 538 730 0 ?540 113 537 226
 0 0 1 16 534 732 0 ?533 537 0 541 0 0 1 31 539 786 0 537 541 226 0 +0 281652846
7712105e-30 -.2688952715072445 0 -104744440165294e-28 1 0 -1 -104744440165294e-2
8 .05 31 541 787 0 534 0 539 0 +0 2659411807464165e-30 -.2538952715072445 0 -104
744440165294e-28 1 0 -1 -104744440165294e-28 .05 31 226 785 0 538 539 222 0 +0 2
816528467712105e-30 -.2688952715072445 0 -104744440165294e-28 1 0 -1 -1047444401
65294e-28 .015 17 533 0 235 533 533 0 531 534 0 0 +15 235 743 0 533 99 23 17 540
 0 542 540 540 0 543 538 0 0 +16 113 729 0 ?544 100 538 222 0 0 1 17 544 0 545 5
44 544 0 546 113 0 0 +15 545 754 0 544 511 0 17 546 0 512 546 546 0 544 113 0 0
 -15 512 750 0 546 233 0 15 542 758 0 540 518 0 17 543 0 519 543 543 0 540 538 0
 0 -15 519 753 0 543 511 545 15 524 757 0 536 518 542 83 3 526 1 1 .501960784313
726 50 237 776 0 518 230 291 0 +.015 2816528467712105e-30 -.2688952715072445 0 -
104744440165294e-28 1 0 -1 -104744440165294e-28 51 291 775 0 511 237 284 0 +0 -1
478364311088864e-30 .1411401224500224 0 -104744440165294e-28 1 .015 0 -1 -104744
440165294e-28 83 3 521 1 1 .501960784313726 81 1 513 876 428 99 0 232 547 508 54
8 83 3 515 1 1 .501960784313726 81 1 232 961 401 99 513 0 186 287 549 81 1 547 8
75 428 234 0 296 550 513 551 83 3 548 1 1 .501960784313726 81 1 296 963 401 234
 547 0 287 300 552 81 1 550 874 428 297 0 300 553 547 554 83 3 551 1 1 .50196078
4313726 81 1 300 964 401 297 550 0 296 304 555 81 1 553 873 428 301 0 304 556 55
0 557 83 3 554 1 1 .501960784313726 81 1 304 965 401 301 553 0 300 306 558 81 1
 556 872 428 288 0 306 559 553 560 83 3 557 1 1 .501960784313726 81 1 306 966 40
1 288 556 0 304 311 561 81 1 559 871 428 283 0 287 562 556 563 83 3 560 1 1 .501
960784313726 81 1 287 962 401 283 559 0 232 296 564 81 1 562 870 428 289 0 391 5
65 559 566 83 3 563 1 1 .501960784313726 81 1 391 968 401 289 562 0 311 396 567
 81 1 565 869 428 392 0 396 402 562 568 83 3 566 1 1 .501960784313726 81 1 396 9
69 401 392 565 0 391 400 569 81 1 402 868 428 397 0 400 570 565 571 83 3 568 1 1
 .501960784313726 81 1 570 867 428 167 0 403 439 402 572 83 3 571 1 1 .501960784
313726 81 1 403 971 401 167 570 0 400 406 573 81 1 439 866 428 308 0 311 433 570
 574 83 3 572 1 1 .501960784313726 81 1 311 967 401 308 439 0 306 391 575 83 3 5
74 1 1 .501960784313726 82 1 575 -1998912453 82 1 573 -2007432133 82 1 569 -2008
611781 82 1 567 -2009201605 82 1 564 -1941437381 82 1 561 -1949957061 82 1 558 -
1950546885 82 1 555 -1951136709 82 1 552 -1951726533 81 1 186 960 401 183 506 0
 163 232 576 82 1 549 -1898773445 81 1 506 855 428 183 0 186 414 484 577 81 1 16
3 959 401 159 457 0 0 186 578 82 1 576 -2110192581 81 1 457 861 428 159 0 163 45
9 451 579 82 1 578 -2042100678 83 3 579 1 1 .501960784313726 81 1 414 854 428 18
7 0 413 492 506 580 83 3 577 1 1 .501960784313726 81 1 492 853 428 156 0 415 486
 414 581 83 3 580 1 1 .501960784313726 81 1 415 976 401 156 492 0 413 418 582 83
 3 581 1 1 .501960784313726 82 1 582 -2109012933 83 3 507 1 1 .501960784313726 1
5 505 253 0 133 116 102 17 133 0 505 133 133 0 130 127 0 0 -81 1 431 849 428 190
 0 420 419 497 583 83 3 502 1 1 .501960784313726 81 1 419 848 428 374 0 418 423
 431 584 83 3 583 1 1 .501960784313726 83 3 584 1 1 .501960784313726 15 501 259
 0 585 14 0 17 585 0 501 585 585 0 586 587 0 0 -17 586 0 588 586 586 0 585 587 0
 0 +16 587 152 0 ?586 118 362 589 0 0 1 16 118 308 0 ?115 373 587 590 0 0 1 16 3
62 147 0 ?591 587 358 592 0 0 1 31 589 190 0 587 592 590 0 +.650107371141956 -25
5351295663786e-30 0 -1 0 0 0 0 1 .0767 31 592 189 0 362 363 589 0 +.439707371141
956 -255351295663786e-30 0 -1 0 0 0 0 1 .1746 30 590 310 0 118 589 593 0 +-.1473
783783783784 .2538952715072445 0 0 0 -1 30 593 438 0 373 590 16 0 +-.14737837837
83784 .2546236064381605 .2538952715072455 0 1 3491481338843135e-30 16 373 436 0
 ?128 20 118 593 0 0 1 30 16 562 0 20 593 6 0 +-.1473783783783784 -.253895271507
2445 0 0 0 1 16 20 560 0 ?35 9 373 16 0 0 1 17 35 0 102 71 85 22 31 20 0 265 +17
 71 0 102 128 35 69 265 125 0 372 +17 85 0 102 35 19 83 104 120 0 31 +17 31 0 30
 270 28 83 35 20 0 267 -17 265 0 264 33 367 22 71 125 0 0 -15 30 620 0 32 283 0
 17 270 0 30 594 31 78 267 218 0 275 -17 594 0 30 77 270 72 275 272 0 375 -17 27
5 0 412 366 74 78 594 272 0 0 +15 412 590 0 366 407 0 17 366 0 412 245 275 92 80
 365 0 0 -17 74 0 412 275 245 72 356 359 0 594 +17 245 0 412 74 366 89 25 242 0
 356 +17 356 0 355 251 375 89 74 359 0 0 -17 25 0 23 21 91 92 245 242 0 26 -17 9
1 0 23 25 88 89 251 247 0 245 -17 26 0 269 80 104 92 21 27 0 366 +15 269 706 0 1
04 189 0 17 104 0 269 26 267 10 85 120 0 0 -16 27 728 0 ?26 242 100 195 0 0 1 17
 88 0 23 91 96 86 101 246 0 251 -17 101 0 351 111 352 94 88 246 0 107 +16 246 72
5 0 ?101 247 242 227 242 242 1 17 77 0 30 32 594 75 375 276 0 271 -17 32 0 30 28
 77 81 271 268 0 33 -17 128 0 102 56 71 29 372 373 0 129 +31 363 188 0 358 360 5
92 0 +.1493073711419556 -255351295663786e-30 0 -1 0 0 0 0 1 .252 17 591 0 595 59
1 591 0 596 362 0 0 +15 595 149 0 591 417 0 17 596 0 496 596 596 0 591 362 0 0 -
15 496 258 0 596 489 588 15 588 154 0 586 489 0 83 3 498 1 1 .501960784313726 52
 255 15 177 0 489 157 5 0 -.650107371141956 -255351295663786e-30 0 -1 0 0 .0767
 .421870808096887 .90665595529709 0 0 1 52 157 176 0 417 145 15 0 -.439707371141
956 -255351295663786e-30 0 -1 0 0 .1746 .2575383898222375 .966268067240023 0 0 1
 83 3 493 1 1 .501960784313726 15 490 257 0 597 417 595 17 597 0 490 597 597 0 3
61 358 0 0 -17 361 0 357 361 361 0 597 358 0 0 +15 357 144 0 361 156 0 83 3 485
 1 1 .501960784313726 15 483 251 0 598 476 132 51 191 170 0 476 478 184 0 +-.033
8874844611927 -255351295663786e-30 0 -1 0 0 .2488952715072445 0 0 1 52 478 168 0
 469 471 191 0 +.260667656847294 -255351295663786e-30 0 -1 0 0 .219214534201483
 .2575383898222375 .966268067240023 0 0 1 52 471 167 0 462 464 478 0 +.438680411
6964585 -255351295663786e-30 0 -1 0 0 .171768985904908 .4218708080968875 .906655
95529709 0 0 1 50 464 166 0 165 456 471 0 +.647107371141956 -563043318166538e-33
 0 1 0 0 0 0 -1 50 456 390 0 164 450 464 0 +.015 .2638952715072445 0 0 -1 0 0 0
 -1 51 450 391 0 443 170 456 0 +0 -.1411401224500224 0 0 -1 0 .015 0 0 -1 50 170
 392 0 436 161 450 0 +.015 .2688952715072445 0 0 -1 0 0 0 -1 17 598 0 483 598 59
8 0 134 131 0 0 -15 132 119 0 130 476 0 17 134 0 599 134 134 0 598 131 0 0 +15 5
99 109 0 134 469 0 83 3 480 1 1 .501960784313726 15 477 249 0 600 469 599 17 600
 0 477 600 600 0 139 135 0 0 -17 139 0 601 139 139 0 600 135 0 0 +15 601 104 0 1
39 462 0 83 3 473 1 1 .501960784313726 15 470 248 0 602 462 601 17 602 0 470 602
 602 0 142 140 0 0 -17 142 0 463 142 142 0 602 140 0 0 +15 463 99 0 142 165 0 83
 3 466 1 1 .501960784313726 83 3 458 1 1 .501960784313726 15 455 366 0 339 164 0
 17 339 0 455 339 339 0 337 336 0 0 -83 3 452 1 1 .501960784313726 15 449 369 0
 603 443 338 17 603 0 449 603 603 0 335 334 0 0 -15 338 370 0 337 443 0 17 335 0
 604 335 335 0 603 334 0 0 +15 604 374 0 335 436 0 83 3 446 1 1 .501960784313726
 15 444 373 0 605 436 604 17 605 0 444 605 605 0 333 331 0 0 -17 333 0 606 333 3
33 0 605 331 0 0 +15 606 378 0 333 169 0 83 3 440 1 1 .501960784313726 15 437 37
7 0 607 169 606 17 607 0 437 607 607 0 330 328 0 0 -17 330 0 166 330 330 0 607 3
28 0 0 +15 166 359 0 330 159 344 82 1 432 -1997863877 81 1 429 846 428 407 0 411
 608 423 609 83 3 430 1 1 .501960784313726 81 1 411 974 401 407 429 0 409 413 61
0 81 1 608 845 428 189 0 409 408 429 611 83 3 609 1 1 .501960784313726 81 1 409
 973 401 189 608 0 406 411 612 81 1 408 844 428 12 0 406 0 608 613 83 3 611 1 1
 .501960784313726 83 3 613 1 1 .501960784313726 82 1 612 -1896676293 82 1 610 -1
938553797 79 14 427 SWEntUnchanged82 1 421 -1996422085 82 1 416 -2109602757 82 1
 410 -1895889861 50 313 528 0 392 309 168 0 +.015 -938842822570702e-30 .26889527
15072445 0 3491481338843135e-30 -1 0 1 3491481338843135e-30 15 405 502 0 380 167
 0 17 380 0 405 380 380 0 377 376 0 0 -82 1 404 -2008021957 17 44 0 344 50 345 4
2 149 143 0 350 -17 41 0 344 117 50 37 109 180 0 115 -17 109 0 105 107 106 48 41
 180 0 111 +15 307 626 0 263 288 0 17 263 0 307 263 263 0 261 260 0 0 -15 305 62
9 0 614 301 262 17 614 0 305 614 614 0 259 258 0 0 -15 262 630 0 261 301 0 17 25
9 0 615 259 259 0 614 258 0 0 +15 615 634 0 259 297 0 15 302 633 0 616 297 615 1
7 616 0 302 616 616 0 257 255 0 0 -17 257 0 617 257 257 0 616 255 0 0 +15 617 63
8 0 257 234 0 15 298 637 0 618 234 617 17 618 0 298 618 618 0 254 252 0 0 -17 25
4 0 290 254 254 0 618 252 0 0 +15 290 619 0 254 283 30 40 35 281 0 1 35 .0273888
586924484 .3968384052937595 ??.142760157373418 -.2538952715072445 0 .13311167009
38424 -.2538952715072445 -.04143573087857405 .0580109120429786 -.253895271507244
5 -.189671656249161 .03177950629222325 -.2538952715072445 -.2914295764475715 .03
640069589034095 -.2538952715072445 -.371055863734657 .0607407398757899 -.2538952
715072445 -.430963796286685 .1049697077263024 -.2538952715072445 -.4786443942487
9 .155860756100603 -.2538952715072445 -.502281767833727 .205988567018611 -.25389
52715072445 -.505694120723803 .25234505181437 -.2538952715072445 -.4925897061611
84 .292631051140402 -.2538952715072445 -.464974724549927 .324430227399005 -.2538
952715072445 -.4239477223091265 .3448444325767275 -.2538952715072445 -.370098925
182778 .3489162499597825 -.2538952715072445 -.2881537990074735 .3167018596119445
 -.2538952715072445 -.174771832924175 .269503739469498 -.2538952715072445 -.0840
977220233252 .2461312642775495 -.2538952715072445 -.03702476062926525 .238464549
600563 -.2538952715072445 -.00560937848689445 .242567984126389 -.253895271507244
5 .0268150801247321 .285691532127496 -.2538952715072445 .113207394338969 .343932
713434574 -.2538952715072445 .2568923312097845 .349656499334962 -.25389527150724
45 .338504834146533 .3276283244296755 -.2538952715072445 .41799398665667 .293508
5259125675 -.2538952715072445 .464139654260742 .245294249275828 -.25389527150724
45 .495692743002923 .194507617144357 -.2538952715072445 .506477568345407 .146380
6566759242 -.2538952715072445 .499580584509524 .1034257433524226 -.2538952715072
445 .477524301705554 .0679641849743472 -.2538952715072445 .4416978272743025 .042
66569598477755 -.2538952715072445 .392865069822223 .03088163426456245 -.25389527
15072445 .3313635804882265 .0422338179363449 -.2538952715072445 .235785870804987
5 .0927319521194982 -.2538952715072445 .1179577518193686 .1337253247012266 -.253
8952715072445 .0399545706759997 .1427601573734178 -.2538952715072445 -1272455037
652164e-32 41 1 282 H.1427601573734178 -.2538952715072445 -1272455037652164e-32
 40 23 228 0 1 23 .01288999989081706 .391493289772767 ??-.1260767866846676 -.059
4712706927205 -.253895271507245 -.107783673683891 -.1379338734661952 -.253895271
507246 -.1105355963534068 -.1782159921951305 -.2538952715072465 -.11693490695732
14 -.19570913444967 -.2538952715072465 -.1284485168791504 -.210583340929736 -.25
38952715072465 -.1372263574310328 -.215952140150554 -.2538952715072465 -.1473855
34569248 -.217968228564469 -.2538952715072465 -.1563495936977255 -.2164005901701
5 -.2538952715072465 -.164274406575207 -.212176220833968 -.2538952715072465 -.17
3726058984649 -.202436022245975 -.2538952715072465 -.1826165518191105 -.18398867
70566045 -.2538952715072465 -.187378214558202 -.1496921189960324 -.2538952715072
46 -.1766281955960635 -.0837098994790626 -.2538952715072455 -.1589043808589565 -
.03517433551883305 -.253895271507245 -.1552448275219795 -.02772680330134885 -.25
38952715072445 -.150544075955789 -.0208394258935062 -.2538952715072445 -.1486435
760882506 -.01950806430921335 -.2538952715072445 -.147566860708661 -.01925092737
064035 -.2538952715072445 -.1464631757765692 -.0193831024622674 -.25389527150724
45 -.145198057838001 -.02001646413008615 -.2538952715072445 -.1428374532997086 -
.022408102258505 -.2538952715072445 -.1360281142042814 -.0347901173571671 -.2538
95271507245 -.1260767866846676 -.0594712706927205 -.253895271507245 41 1 229 H-.
1260767866846676 -.0594712706927205 -.253895271507245 40 23 220 0 1 23 .01993589
22393813 .3900944060366055 ??-.126076786684668 -.2538952715072445 -.059471270692
7232 -.1416393739192266 -.2538952715072445 -.02410999192572765 -.143332545693166
 -.2538952715072445 -.0217917149686576 -.1454665668774516 -.2538952715072445 -.0
1984071152916075 -.146560404343502 -.2538952715072445 -.0193554043075741 -.14776
56305141938 -.2538952715072445 -.019269839087664 -.1487690111540218 -.2538952715
072445 -.0195623752546812 -.150236187745855 -.2538952715072445 -.020553278843973
45 -.153540899639895 -.2538952715072445 -.0247749023107584 -.164023649956713 -.2
538952715072445 -.0472334015841719 -.1872822983701055 -.2538952715072445 -.14392
79991443566 -.1838545298379575 -.2538952715072445 -.179674507524576 -.1767469503
2479 -.2538952715072445 -.1976860241552385 -.167457154726861 -.2538952715072445
 -.2095766093713145 -.1584858387558025 -.2538952715072445 -.2155453800022725 -.1
49610161687345 -.2538952715072445 -.217872560661848 -.1404522686256726 -.2538952
715072445 -.2170395229587835 -.1323656003531972 -.2538952715072445 -.21345187093
9838 -.1229604491478406 -.2538952715072445 -.2049699993966685 -.1137977311251484
 -.2538952715072445 -.1887298033916505 -.1076542253291484 -.2538952715072445 -.1
58510387738663 -.1135068018932406 -.2538952715072445 -.1012693769334844 -.126076
786684668 -.2538952715072445 -.0594712706927233 41 1 221 H-.126076786684668 -.25
38952715072445 -.0594712706927233 40 24 216 0 1 24 .01349883600796272 .396776100
8846965 ??-.149470705509997 -.2538952715072445 .0199564936449544 -.1483644766596
704 -.2538952715072445 .0194052308783423 -.1471242309012952 -.2538952715072445 .
01925573229178915 -.146092321868683 -.2538952715072445 .01951674984382055 -.1446
771551730382 -.2538952715072445 .0204176561701895 -.1415965925843158 -.253895271
5072445 .02417576038477805 -.1320421658704122 -.2538952715072445 .04400430734227
815 -.1086284504311986 -.2538952715072445 .1288110317278626 -.1093916033946266 -
.2538952715072445 .172860139283129 -.1152156472577506 -.2538952715072445 .192143
147984407 -.1266464864509374 -.2538952715072445 .2089675331014705 -.135367760151
8596 -.2538952715072445 .2151238658015615 -.145752955447958 -.2538952715072445 .
2179175054127205 -.155014540933012 -.2538952715072445 .2168371674887265 -.163038
7784410675 -.2538952715072445 .213033817885131 -.172462614087878 -.2538952715072
445 .204133362249749 -.1815447076590525 -.2538952715072445 .1871618961350475 -.1
872536203981205 -.2538952715072445 .155596696939295 -.179855238014328 -.25389527
15072445 .0955311440744752 -.167918221525786 -.2538952715072445 .057386793456977
3 -.159151918518651 -.2538952715072445 .03571936213408245 -.1539549513438565 -.2
538952715072445 .02545338286087395 -.15074995901927 -.2538952715072445 .02104477
399821675 -.1494707055099968 -.2538952715072445 .0199564936449547 41 1 217 H-.14
94707055099968 -.2538952715072445 .0199564936449547 40 23 209 0 1 23 .0199358922
393289 .3900944060365955 ??-.1260767866846676 -.0594712706927242 .25389527150724
4 -.1416393739192264 -.0241099919257264 .2538952715072445 -.1433325456931652 -.0
2179171496865575 .2538952715072445 -.1454665668774508 -.0198407115291585 .253895
2715072445 -.1465604043435016 -.01935540430757225 .2538952715072445 -.1477656305
14193 -.0192698390876615 .2538952715072445 -.148769011154021 -.0195623752546788
 .2538952715072445 -.150236187745854 -.02055327884396985 .2538952715072445 -.153
5408996398915 -.02477490231075155 .2538952715072445 -.164023649956704 -.04723340
15841477 .253895271507244 -.187282298370102 -.1439279991442518 .253895271507244
 -.183854529837961 -.1796745075245625 .253895271507244 -.1767469503248085 -.1976
86024155207 .2538952715072435 -.167457154726873 -.209576609371304 .2538952715072
435 -.1584858387558165 -.2155453800022675 .2538952715072435 -.1496101616873582 -
.217872560661848 .2538952715072435 -.140452268625684 -.2170395229587875 .2538952
715072435 -.1323656003532074 -.2134518709398455 .2538952715072435 -.122960449147
8512 -.2049699993966825 .2538952715072435 -.1137977311251578 -.1887298033916755
 .2538952715072435 -.1076542253291512 -.158510387738709 .253895271507244 -.11350
680189322 -.1012693769335734 .253895271507244 -.1260767866846676 -.0594712706927
242 .253895271507244 41 1 210 H-.1260767866846676 -.0594712706927242 .2538952715
07244 40 24 204 0 1 24 .01349883600800376 .396776100884442 ??-.1494707055099934
 .0199564936449479 .2538952715072445 -.1483644766596676 .01940523087833695 .2538
952715072445 -.1471242309012936 .0192557322917845 .2538952715072445 -.1460923218
68682 .0195167498438167 .2538952715072445 -.144677155173037 .0204176561701865 .2
538952715072445 -.141596592584313 .0241757603847784 .2538952715072445 -.13204216
58704024 .0440043073422992 .2538952715072445 -.1086284504311854 .128811031727975
 .253895271507245 -.1093916033946562 .172860139283287 .253895271507245 -.1152156
472577746 .192143147984459 .253895271507245 -.1266464864509016 .208967533101435
 .253895271507245 -.1353677601518256 .2151238658015435 .253895271507245 -.145752
9554479324 .2179175054127175 .253895271507245 -.155014540932992 .216837167488731
 .253895271507245 -.163038778441049 .2130338178851415 .253895271507245 -.1724626
14087859 .204133362249772 .253895271507245 -.1815447076590365 .187161896135091 .
253895271507245 -.187253620398117 .1555966969393775 .253895271507245 -.179855238
0143705 .0955311440746401 .2538952715072445 -.1679182215258365 .0573867934571117
 .2538952715072445 -.159151918518688 .03571936213416105 .2538952715072445 -.1539
549513438845 .02545338286091785 .2538952715072445 -.1507499590192925 .0210447739
982351 .2538952715072445 -.1494707055099934 .01995649364494785 .2538952715072445
 41 1 205 H-.1494707055099934 .01995649364494785 .2538952715072445 141 192 144 6
19 620 153 141 619 227 621 192 153 141 620 208 192 621 153 141 621 219 620 619 1
53 40 26 177 0 1 26 .0123502055486739 .388639318126985 ??-.149470705509991 .2538
952715072445 .01995649364494425 -.1527962302105065 .2538952715072445 .0236267387
59586 -.1614505894985695 .2538952715072445 .04097672939092435 -.1840623290078465
 .2538952715072445 .1148833097744522 -.1871069899896605 .2538952715072445 .15843
8766303109 -.181702977907723 .2538952715072445 .1867196291622795 -.1735279166497
83 .2538952715072445 .2027123129908855 -.1643926152668135 .2538952715072445 .212
0899381705615 -.155414671755395 .2538952715072445 .2167140580562635 -.1453247872
20454 .2538952715072445 .2178872390094655 -.1366718054923806 .2538952715072445 .
2157208975408445 -.1288535512142482 .2538952715072445 .2109193474832695 -.119385
3242280604 .2538952715072445 .1999823179164555 -.1108351268951794 .2538952715072
445 .179414859157783 -.1075920165909052 .2538952715072445 .1411542928880196 -.12
37434517580336 .2538952715072445 .0660780017727182 -.1300145707149656 .253895271
5072445 .0490451203890282 -.1345001195040028 .2538952715072445 .0382035818921299
 -.137723053563654 .2538952715072445 .0312107472599378 -.1400950513965816 .25389
52715072445 .02667095661071445 -.1421425325935702 .2538952715072445 .02336132005
42787 -.1446571239018936 .2538952715072445 .02043462631116845 -.1457825923211396
 .2538952715072445 .01966188488693295 -.1471023866296404 .2538952715072445 .0192
5764639615245 -.1483124816319562 .2538952715072445 .0193888428459197 -.149470705
509991 .2538952715072445 .0199564936449441 41 1 178 H-.149470705509991 .25389527
15072445 .0199564936449441 141 158 141 622 623 145 141 622 240 624 158 145 141 6
23 316 158 624 145 141 624 277 623 622 145 40 20 154 0 1 20 .01016741831997292 .
3982284488611415 ??2764971339208985e-32 .2538952715072445 .1227877234115272 -.04
68996524143769 .2538952715072445 .1157684900990642 -.089529387780267 .2538952715
072445 .0948464498083513 -.1241993014364636 .2538952715072445 .0585537518487491
 -.140022670347289 .2538952715072445 .0176688505696778 -.139601873267119 .253895
2715072445 -.0199909160204287 -.1273636911021052 .2538952715072445 -.05323303997
25118 -.104437316870647 .2538952715072445 -.0825639671556355 -.0702572079617289
 .2538952715072445 -.1064196389534106 -.02526702574478925 .2538952715072445 -.12
07906165014342 .02670971499583175 .2538952715072445 -.1205539708397952 .07756017
15577147 .2538952715072445 -.102506555347953 .1169356647085006 .2538952715072445
 -.0688443455784225 .1377121797576294 .2538952715072445 -.0280942029817274 .1409
659328673606 .2538952715072445 .01073603219958558 .131535232862123 .253895271507
2445 .0450318089545765 .1114002167189052 .2538952715072445 .0754157797783559 .08
0165415793567 .2538952715072445 .1009786055179302 .03776650808884685 .2538952715
072445 .1182815592037684 -4065015708455515e-33 .2538952715072445 .12278772341152
7 41 1 155 H-4065015708455515e-33 .2538952715072445 .122787723411527 19 13 88 0
 1 0 8 4 S0 74 4 CI16 index_map_offset0 0 1 dCCZ20 11 2 0 0 522 525 0 0 0 0 0 0
 0 0 0 0 0 0 0 0 0 0 0 0 1 0 
